<svg xmlns="http://www.w3.org/2000/svg" xmlns:xlink="http://www.w3.org/1999/xlink" viewBox="0,0,256,256" width="400px" height="400px"><g fill="#4f8ef6" fill-rule="nonzero" stroke="none" stroke-width="1" stroke-linecap="butt" stroke-linejoin="miter" stroke-miterlimit="10" stroke-dasharray="" stroke-dashoffset="0" font-family="none" font-weight="none" font-size="none" text-anchor="none" style="mix-blend-mode: normal"><g transform="scale(2.56,2.56)"><path d="M50,14c-19.851,0 -36,16.149 -36,36c0,19.851 16.149,36 36,36c19.851,0 36,-16.149 36,-36c0,-19.851 -16.149,-36 -36,-36zM50,16c18.748,0 34,15.252 34,34c0,18.748 -15.252,34 -34,34c-18.748,0 -34,-15.252 -34,-34c0,-18.748 15.252,-34 34,-34zM50,20c-16.542,0 -30,13.458 -30,30c0,14.677 10.92983,27.42339 25.42383,29.65039c0.026,0.004 0.05313,0.00586 0.07813,0.00586c0.242,0 0.45419,-0.17683 0.49219,-0.42383c0.042,-0.273 -0.14597,-0.52831 -0.41797,-0.57031c-14.011,-2.153 -24.57617,-14.47411 -24.57617,-28.66211c0,-15.991 13.01,-29 29,-29c15.99,0 29,13.009 29,29v3c0,5.79 -4.71,10.5 -10.5,10.5c-3.004,0 -5.87591,-1.30408 -7.87891,-3.58008c-0.09,-0.104 -0.21842,-0.16592 -0.35742,-0.16992c-0.125,-0.007 -0.27114,0.04948 -0.36914,0.14648c-2.647,2.646 -6.16153,4.10352 -9.89453,4.10352c-7.72,0 -14,-6.28 -14,-14c0,-7.72 6.28,-14 14,-14c3.187,0 6.19045,1.04725 8.68945,3.03125c0.216,0.172 0.53113,0.13592 0.70313,-0.08008c0.172,-0.217 0.13497,-0.53113 -0.08203,-0.70312c-2.676,-2.125 -5.89555,-3.24805 -9.31055,-3.24805c-8.271,0 -15,6.729 -15,15c0,8.271 6.729,15 15,15c3.826,0 7.43756,-1.42816 10.22656,-4.03516c2.169,2.254 5.15544,3.53516 8.27344,3.53516c6.341,0 11.5,-5.159 11.5,-11.5v-3c0,-16.542 -13.458,-30 -30,-30zM50,27c-3.391,0 -6.65889,0.72334 -9.71289,2.15234c-0.25,0.117 -0.35723,0.41602 -0.24023,0.66602c0.117,0.25 0.41802,0.35623 0.66602,0.24023c2.92,-1.367 6.04411,-2.05859 9.28711,-2.05859c12.131,0 22,9.869 22,22v3c0,1.93 -1.57,3.5 -3.5,3.5c-1.93,0 -3.5,-1.57 -3.5,-3.5v-3c0,-1.222 -0.14741,-2.43914 -0.44141,-3.61914c-0.066,-0.267 -0.33647,-0.43223 -0.60547,-0.36523c-0.268,0.066 -0.43123,0.33747 -0.36523,0.60547c0.273,1.101 0.41211,2.23791 0.41211,3.37891v3c0,2.481 2.019,4.5 4.5,4.5c2.481,0 4.5,-2.019 4.5,-4.5v-3c0,-12.682 -10.317,-23 -23,-23zM32.76758,35.00195c-0.12738,0.01062 -0.25034,0.07028 -0.33984,0.17578c-3.5,4.142 -5.42773,9.40527 -5.42773,14.82227c0,12.682 10.317,23 23,23c2.732,0 5.3995,-0.4713 7.9375,-1.4043l2.19336,5.58594c-2.467,0.92 -5.04683,1.4968 -7.67383,1.7168c-0.275,0.023 -0.47808,0.26406 -0.45508,0.53906c0.021,0.261 0.23909,0.45898 0.49609,0.45898c0.015,0 0.02992,-0.00095 0.04492,-0.00195c2.89,-0.242 5.72292,-0.90194 8.41992,-1.96094c0.124,-0.049 0.22044,-0.14363 0.27344,-0.26562c0.054,-0.121 0.05581,-0.25881 0.00781,-0.38281l-2.55859,-6.51562c-0.101,-0.258 -0.39244,-0.3832 -0.64844,-0.2832c-2.559,1.004 -5.26211,1.51367 -8.03711,1.51367c-12.131,0 -22,-9.869 -22,-22c0,-5.181 1.84441,-10.21573 5.19141,-14.17773c0.178,-0.211 0.15045,-0.52708 -0.06055,-0.70508c-0.105,-0.089 -0.23591,-0.12586 -0.36328,-0.11523zM60.98047,40c-0.1275,-0.00888 -0.25878,0.03059 -0.36328,0.12109c-0.208,0.182 -0.23083,0.49903 -0.04883,0.70703c0.27,0.31 0.52558,0.63184 0.76758,0.96484c0.097,0.135 0.2503,0.20703 0.4043,0.20703c0.103,0 0.20397,-0.03166 0.29297,-0.09766c0.222,-0.162 0.27333,-0.47327 0.11133,-0.69727c-0.258,-0.357 -0.53327,-0.7002 -0.82227,-1.0332c-0.0905,-0.104 -0.2143,-0.163 -0.3418,-0.17187zM50,42c-4.411,0 -8,3.589 -8,8c0,4.411 3.589,8 8,8c4.411,0 8,-3.589 8,-8c0,-4.411 -3.589,-8 -8,-8zM50,43c3.859,0 7,3.14 7,7c0,3.86 -3.141,7 -7,7c-3.859,0 -7,-3.14 -7,-7c0,-3.86 3.141,-7 7,-7zM62.92578,43c-0.06458,0.0043 -0.12845,0.02173 -0.18945,0.05273c-0.247,0.124 -0.34666,0.42488 -0.22266,0.67188c0.158,0.316 0.30541,0.6378 0.44141,0.9668c0.08,0.193 0.26689,0.30859 0.46289,0.30859c0.063,0 0.12841,-0.01206 0.19141,-0.03906c0.255,-0.105 0.37648,-0.39734 0.27148,-0.65234c-0.146,-0.351 -0.30461,-0.6962 -0.47461,-1.0332c-0.09375,-0.18525 -0.28673,-0.28828 -0.48047,-0.27539zM48.52539,78.96289c-0.299,-0.011 -0.51044,0.19861 -0.52344,0.47461c-0.014,0.275 0.19766,0.51139 0.47266,0.52539c0.505,0.025 1.01339,0.03711 1.52539,0.03711l0.50781,-0.00391c0.275,-0.004 0.49619,-0.23181 0.49219,-0.50781c-0.004,-0.274 -0.228,-0.49219 -0.5,-0.49219h-0.00781l-0.49219,0.00391c-0.494,0 -0.98561,-0.01311 -1.47461,-0.03711z"></path></g></g></svg>