<svg xmlns="http://www.w3.org/2000/svg" xmlns:xlink="http://www.w3.org/1999/xlink" viewBox="0,0,256,256" width="400px" height="400px"><g fill="#4f8ef6" fill-rule="nonzero" stroke="none" stroke-width="1" stroke-linecap="butt" stroke-linejoin="miter" stroke-miterlimit="10" stroke-dasharray="" stroke-dashoffset="0" font-family="none" font-weight="none" font-size="none" text-anchor="none" style="mix-blend-mode: normal"><g transform="scale(2.56,2.56)"><path d="M49.74219,13.00195c-0.46644,0.00446 -0.93653,0.02138 -1.4082,0.05078c-12.69277,0.79193 -23.11475,10.92241 -24.23047,23.5918c-0.82953,9.41761 3.38326,17.93578 10.24414,23.11524c1.69133,1.27714 2.65234,3.32899 2.65234,5.48242v0.75781c0,2.18633 1.24188,4.02532 3,5.07422v6.92578c0,2.10852 1.33237,3.90113 3.18945,4.63281c0.227,1.22008 0.92783,2.30341 2.01367,3.02734c1.28109,0.85411 2.95973,1.33984 4.79688,1.33984c1.83714,0 3.51579,-0.48574 4.79688,-1.33984c1.08584,-0.72393 1.78667,-1.80726 2.01367,-3.02734c1.85709,-0.73168 3.18945,-2.52429 3.18945,-4.63281v-6.92578c1.75812,-1.0489 3,-2.88789 3,-5.07422v-0.75586c0,-2.21869 1.08738,-4.27501 2.87695,-5.65625c6.15577,-4.75305 10.12305,-12.21339 10.12305,-20.58789c0,-14.43357 -11.79807,-26.13614 -26.25781,-25.99805zM49.76172,15.00195c13.38328,-0.13107 24.23828,10.65174 24.23828,23.99805c0,7.74349 -3.66147,14.61691 -9.3457,19.00586c-2.24243,1.73076 -3.6543,4.36497 -3.6543,7.23828v0.75586c0,2.22038 -1.77963,4 -4,4h-14c-2.22037,0 -4,-1.77962 -4,-4v-0.75781c0,-2.74857 -1.2266,-5.40322 -3.44727,-7.08008c-6.33511,-4.78254 -10.2255,-12.61741 -9.45703,-21.3418c1.02829,-11.67661 10.66205,-21.04142 22.36328,-21.77148c0.4367,-0.02722 0.87102,-0.04265 1.30273,-0.04687zM49.97656,24c-0.84596,0.00025 -1.68582,0.06806 -2.51562,0.20313h-0.00195h-0.00391c-0.46144,0.0807 -0.80005,0.50295 -0.78125,0.96875v0.00195v0.00195c0.03578,0.7656 -0.09383,1.35204 -0.35742,1.80469c-0.26359,0.45265 -0.66732,0.79517 -1.27734,1.04883h-0.00195c-0.62008,0.26277 -1.15067,0.31122 -1.66016,0.17969c-0.50949,-0.13153 -1.01934,-0.45699 -1.54102,-1.02734l-0.00195,-0.00195l-0.00195,-0.00195c-0.31942,-0.34003 -0.86386,-0.40864 -1.25,-0.11133c-1.37767,0.99987 -2.5871,2.2181 -3.57617,3.5957c-0.27292,0.37905 -0.22705,0.91319 0.12109,1.24023l0.00195,0.00195c1.09292,1.01322 1.32495,1.9074 0.86328,3.10742c-0.25034,0.62422 -0.58832,1.041 -1.03906,1.31641c-0.44945,0.27462 -1.03383,0.41499 -1.79883,0.39453c-0.48081,-0.02156 -0.89976,0.33953 -0.96289,0.8125c-0.26849,1.66008 -0.27036,3.35808 0.00977,5.04688l0.00195,0.00586v0.00391c0.08139,0.44451 0.4727,0.77734 0.92969,0.77734h0.00586h0.00586c1.4926,-0.03571 2.28049,0.45213 2.78711,1.62695c0.51635,1.22257 0.29711,2.13742 -0.78516,3.17773c-0.34137,0.32155 -0.40102,0.83925 -0.11914,1.22852c0.99021,1.3669 2.19213,2.55031 3.54492,3.53516c0.11346,0.10282 0.18976,0.12286 0.22266,0.13086c0.3617,0.15308 0.72581,0.07339 1.00391,-0.16211c0.05555,-0.04434 0.10303,-0.08814 0.12695,-0.11328l0.00195,-0.00195c0.8582,-0.89092 1.9734,-1.15094 2.98242,-0.74414l0.04492,0.01758c1.07593,0.46317 1.67752,1.39569 1.66016,2.61719v0.00195v0.00391c0,0.1927 0.03404,0.44539 0.19727,0.68555c0.16323,0.24016 0.45999,0.42348 0.80664,0.47852h0.00195h0.00195c1.534,0.23036 3.08517,0.22972 4.61523,0.01953l0.04492,-0.00586l0.04297,-0.01367c-0.0025,0.00084 0.0458,-0.0098 0.11328,-0.02148l0.0625,-0.01172h0.00586c0.4585,-0.08765 0.76367,-0.48193 0.76367,-0.9375v-0.00391v-0.00586c-0.02653,-1.37594 0.39681,-2.13007 1.43359,-2.6582c0.64695,-0.32082 1.20535,-0.40467 1.74219,-0.29492c0.53742,0.10987 1.07912,0.42575 1.64063,1.00977l0.00391,0.00391l0.00195,0.00195c0.32455,0.32455 0.84528,0.372 1.21875,0.10156c1.39179,-0.99185 2.60316,-2.19246 3.60352,-3.55273l0.00195,-0.00195v-0.00195c0.27292,-0.37906 0.22705,-0.91123 -0.12109,-1.23828l0.00391,0.00195c-1.06762,-1.0236 -1.29483,-1.9209 -0.83203,-3.10352c0.2451,-0.62361 0.58429,-1.03737 1.03711,-1.3125c0.44998,-0.27341 1.03636,-0.41426 1.80078,-0.39844c0.43931,0.02154 0.81505,-0.26828 0.93945,-0.65625v-0.00391l0.00195,-0.00391c0.19457,-0.64226 0.25685,-1.66173 0.26172,-2.70703c0.0049,-1.04148 -0.03935,-2.01279 -0.25,-2.63672c-0.13138,-0.4096 -0.51071,-0.66806 -0.93359,-0.64844c-1.49683,0.06097 -2.30488,-0.42227 -2.8125,-1.64062c-0.25422,-0.62089 -0.29796,-1.15034 -0.16406,-1.66016c0.13389,-0.50982 0.45974,-1.02 1.03125,-1.54687v-0.00195l0.00195,-0.00195c0.34158,-0.32088 0.41327,-0.84828 0.13086,-1.23828c-0.99962,-1.39895 -2.20984,-2.62069 -3.5918,-3.61328c-0.38746,-0.28505 -0.95411,-0.22127 -1.26367,0.15234c-0.932,1.03055 -1.82853,1.30093 -2.95703,0.92188h-0.00195c-0.70061,-0.23503 -1.15645,-0.57672 -1.45312,-1.04297c-0.29668,-0.46625 -0.44419,-1.08846 -0.4082,-1.92578c0.02057,-0.47924 -0.33757,-0.90949 -0.81055,-0.97266c-0.85274,-0.13405 -1.70482,-0.20142 -2.55078,-0.20117zM49.98828,25.00391c0.78317,-0.00019 1.57226,0.06185 2.36523,0.18555c-0.0312,0.94879 0.12566,1.78222 0.54883,2.44727c0.43304,0.68056 1.1179,1.16409 1.97852,1.45313c1.44763,0.48625 2.87207,0.02644 3.98438,-1.18164c1.26736,0.91557 2.38115,2.03806 3.30664,3.32617c-0.64558,0.60648 -1.09988,1.26207 -1.28906,1.98242c-0.19361,0.73718 -0.1127,1.51686 0.20508,2.29297v0.00195l0.00195,0.00195c0.63042,1.51609 1.97828,2.29876 3.72656,2.24609c0.09727,0.30225 0.19794,1.30998 0.19336,2.29297c-0.0046,0.98101 -0.10237,1.99611 -0.21484,2.38672c-0.88414,-0.01292 -1.66897,0.14457 -2.30859,0.5332c-0.65318,0.39687 -1.13937,1.01739 -1.44727,1.80078c-0.57828,1.47769 -0.18422,2.94394 1.04102,4.14453c-0.92843,1.25552 -2.04438,2.36469 -3.32812,3.2832c-0.64632,-0.65704 -1.34425,-1.10845 -2.10352,-1.26367c-0.77958,-0.15938 -1.59247,-0.01546 -2.39063,0.38086h-0.00195l-0.00195,0.00195c-1.31394,0.66807 -1.98563,1.91765 -1.9707,3.52148l-0.01367,0.00195c-0.03173,0.0055 -0.10313,0.02282 -0.16602,0.03711c-1.43799,0.19754 -2.89206,0.19719 -4.32617,-0.01758c-0.13835,-0.02197 -0.13215,-0.04314 -0.13867,-0.05273c-0.0065,-0.0096 -0.02344,-0.05375 -0.02344,-0.12305c0.01953,-1.58231 -0.85091,-2.94815 -2.2832,-3.55469l-0.09375,-0.03906h-0.03516c-1.37605,-0.51576 -2.91777,-0.11741 -3.99805,1.00586v0.00195l-0.00195,0.00195c-0.01025,0.01079 -0.01728,0.01495 -0.02344,0.01953l-0.01172,0.00977l-0.00195,0.00195c-1.26092,-0.91702 -2.3746,-2.02081 -3.29883,-3.28906c1.24221,-1.22238 1.62525,-2.72552 0.98633,-4.23828l-0.00195,-0.00195v-0.00195c-0.62793,-1.45896 -1.93716,-2.2339 -3.66406,-2.2168c-0.25614,-1.56645 -0.25693,-3.13959 -0.00977,-4.67773c0.87994,0.01554 1.66159,-0.13918 2.29688,-0.52734c0.65202,-0.39839 1.13668,-1.01971 1.44922,-1.80078v-0.00391l0.00195,-0.00195c0.57659,-1.49429 0.16863,-2.96469 -1.08398,-4.1543c0.91898,-1.27397 2.03751,-2.40112 3.31055,-3.32812c0.60097,0.64234 1.25471,1.09931 1.97461,1.28516c0.73852,0.19065 1.52124,0.10131 2.29688,-0.22656c0.76798,-0.31934 1.37395,-0.81095 1.75586,-1.4668c0.37213,-0.63904 0.51188,-1.42007 0.48047,-2.29492c0.76771,-0.12294 1.54496,-0.18536 2.32813,-0.18555zM49.99805,31.99219c-0.04224,0.00056 -0.08424,0.00646 -0.125,0.01758c-1.25634,0.0199 -2.43707,0.33489 -3.49023,0.87109c-0.1025,0.01831 -0.19672,0.06815 -0.26953,0.14258c-1.35759,0.75775 -2.48036,1.88643 -3.20312,3.26562c-0.08306,0.1584 -0.0753,0.34908 0.02036,0.5002c0.09566,0.15112 0.26468,0.23973 0.44339,0.23244c0.17871,-0.00729 0.33994,-0.10938 0.42297,-0.26779c0.54855,-1.04676 1.3608,-1.92729 2.33984,-2.57812l0.875,3.93359c-0.34225,0.57244 -0.51172,1.23292 -0.51172,1.89063c0,0.86111 0.28532,1.72894 0.87695,2.39453c0.02632,0.02961 0.06228,0.05138 0.08984,0.08008l-2.69727,2.16797c-0.80362,-0.90485 -1.38166,-2.01411 -1.63086,-3.24609c-0.04465,-0.23908 -0.25485,-0.41136 -0.49805,-0.4082c-0.15,0.00191 -0.29122,0.07107 -0.38471,0.1884c-0.09348,0.11733 -0.12935,0.27043 -0.09771,0.41707c0.31411,1.55289 1.08229,2.93864 2.1543,4.02344c0.02514,0.0349 0.05468,0.06641 0.08789,0.09375c0.00197,0.00193 0.00389,0.00393 0.00586,0.00586c0.0013,0.00066 0.0026,0.00131 0.00391,0.00195c0.88797,0.86766 1.97889,1.52657 3.19141,1.9082c0.04562,0.02222 0.09435,0.03737 0.14453,0.04492c0.71602,0.21042 1.47057,0.32813 2.25391,0.32813c1.13355,0 2.21517,-0.23649 3.19336,-0.66211c0.164,-0.07151 0.2774,-0.22508 0.29745,-0.40287c0.02006,-0.17779 -0.05626,-0.35277 -0.20021,-0.45902c-0.14395,-0.10625 -0.33365,-0.12763 -0.49763,-0.05608c-0.85581,0.37237 -1.79852,0.58008 -2.79297,0.58008c-0.47843,0 -0.94332,-0.05336 -1.39453,-0.14453l2.0957,-3.42578c0.80038,-0.14241 1.45975,-0.51527 1.92188,-1.03516c0.43172,-0.48568 0.69492,-1.07936 0.80859,-1.69922l3.3457,1.0332c-0.3516,1.38421 -1.10799,2.60505 -2.14648,3.52148c-0.14315,0.11535 -0.21147,0.29995 -0.17789,0.4807c0.03358,0.18075 0.16363,0.3285 0.33866,0.38475c0.17503,0.05624 0.3668,0.01191 0.49939,-0.11545c1.28548,-1.1344 2.19753,-2.68084 2.54688,-4.42773c0.02477,-0.06407 0.03607,-0.13255 0.0332,-0.20117c0.07755,-0.44682 0.12891,-0.90259 0.12891,-1.37109c0,-1.80872 -0.6019,-3.4817 -1.61719,-4.82227c-0.101,-0.13761 -0.26521,-0.21419 -0.43555,-0.20312c-0.18482,0.01217 -0.34777,0.12551 -0.42349,0.29455c-0.07572,0.16904 -0.0518,0.36608 0.06216,0.51209c0.88871,1.17344 1.41406,2.63147 1.41406,4.21875c0,0.24984 -0.01559,0.49535 -0.04102,0.73828l-3.48828,-1.07812c-0.06563,-0.74597 -0.33402,-1.47684 -0.84766,-2.05469c-0.58081,-0.65342 -1.46791,-1.08388 -2.56445,-1.09961l0.38672,-3.48437c0.32349,0.02015 0.64346,0.05449 0.95313,0.11719c0.27075,0.05447 0.53439,-0.12085 0.58887,-0.3916c0.05447,-0.27075 -0.12085,-0.53439 -0.3916,-0.58887c-0.48101,-0.09739 -0.97754,-0.14548 -1.48437,-0.15234c-0.03712,-0.00886 -0.07512,-0.01345 -0.11328,-0.01367zM53.4707,32.85156c-0.23018,0.00224 -0.42908,0.16133 -0.48186,0.38538c-0.05277,0.22406 0.05422,0.45519 0.2592,0.55993c0.33846,0.17716 0.65934,0.3825 0.96289,0.61133c0.14251,0.11049 0.33347,0.13569 0.49976,0.06595c0.16629,-0.06973 0.28216,-0.2236 0.30324,-0.40269c0.02108,-0.17909 -0.05589,-0.35565 -0.20145,-0.4621c-0.34645,-0.26117 -0.71403,-0.49638 -1.10156,-0.69922c-0.07391,-0.03934 -0.15651,-0.05948 -0.24023,-0.05859zM49.4375,33.03906l-0.40039,3.5918c-0.4575,0.11646 -0.86508,0.30521 -1.20508,0.5625l-0.78516,-3.5332c0.73584,-0.34334 1.54144,-0.5532 2.39063,-0.62109zM50,37.5c0.875,0 1.46859,0.31012 1.87695,0.76953c0.40836,0.45941 0.62305,1.09158 0.62305,1.73047c0,0.63889 -0.21468,1.27106 -0.62305,1.73047c-0.40836,0.45941 -1.00195,0.76953 -1.87695,0.76953c-0.53075,0 -0.94783,-0.12409 -1.29297,-0.31641c-0.07524,-0.11523 -0.19464,-0.19436 -0.33008,-0.21875c-0.08939,-0.07409 -0.17795,-0.14893 -0.25391,-0.23437c-0.40836,-0.45941 -0.62305,-1.09158 -0.62305,-1.73047c0,-0.4702 0.1176,-0.9353 0.3418,-1.33203c0.09801,-0.06767 0.16865,-0.16809 0.19922,-0.2832c0.02899,-0.03713 0.05076,-0.08006 0.08203,-0.11523c0.40836,-0.45941 1.00195,-0.76953 1.87695,-0.76953zM35.13281,42.36914c0.0053,0 0.00497,0.00651 0.00977,0.00781c-0.009,0.00017 -0.01437,-0.00606 -0.02344,-0.00586zM48.30078,43.08984c0.35789,0.1857 0.76505,0.30678 1.21484,0.36133l-1.91211,3.12891c-0.78039,-0.28398 -1.49309,-0.7071 -2.11523,-1.23242zM58.79492,52.22656c0.0014,0.001 0.00466,-0.0011 0.00586,0l0.00781,0.00781c-0.0041,-0.0043 -0.0095,-0.00351 -0.01367,-0.00781zM52.27344,54.87891c0.00007,0.0044 -0.00195,0.0073 -0.00195,0.01172v-0.00977zM42,72h1h14h1v4h-3.5c-0.18032,-0.00255 -0.34804,0.09219 -0.43894,0.24794c-0.0909,0.15575 -0.0909,0.34838 0,0.50413c0.0909,0.15575 0.25863,0.25049 0.43894,0.24794h3.5v1c0,1.66848 -1.33152,3 -3,3h-10c-1.66848,0 -3,-1.33152 -3,-3v-1h9.5c0.18032,0.00255 0.34804,-0.09219 0.43894,-0.24794c0.0909,-0.15575 0.0909,-0.34838 0,-0.50413c-0.0909,-0.15575 -0.25863,-0.25049 -0.43894,-0.24794h-9.5zM45.31055,83h9.37891c-0.2162,0.35053 -0.54079,0.68864 -1.00195,0.99609c-0.89041,0.59364 -2.21064,1.00391 -3.6875,1.00391c-1.47686,0 -2.79709,-0.41026 -3.6875,-1.00391c-0.46116,-0.30746 -0.78575,-0.64556 -1.00195,-0.99609z"></path></g></g></svg>