<svg xmlns="http://www.w3.org/2000/svg" xmlns:xlink="http://www.w3.org/1999/xlink" viewBox="0,0,256,256" width="400px" height="400px"><g fill="#4f8ef6" fill-rule="nonzero" stroke="none" stroke-width="1" stroke-linecap="butt" stroke-linejoin="miter" stroke-miterlimit="10" stroke-dasharray="" stroke-dashoffset="0" font-family="none" font-weight="none" font-size="none" text-anchor="none" style="mix-blend-mode: normal"><g transform="scale(2.56,2.56)"><path d="M44,15c-2.19733,0 -4,1.80267 -4,4v3h-12v-1.5c0,-0.82253 -0.67747,-1.5 -1.5,-1.5h-4c-0.82253,0 -1.5,0.67747 -1.5,1.5v1.55078c-5.59637,0.50775 -10,5.22326 -10,10.94922v39c0,6.06341 4.93659,11 11,11h56c6.06341,0 11,-4.93659 11,-11v-39c0,-5.72596 -4.40363,-10.44147 -10,-10.94922v-1.55078c0,-0.82253 -0.67747,-1.5 -1.5,-1.5h-4c-0.82253,0 -1.5,0.67747 -1.5,1.5v1.5h-12v-3c0,-2.19733 -1.80267,-4 -4,-4zM44,17h12c1.11667,0 2,0.88333 2,2v3h-16v-3c0,-1.11667 0.88333,-2 2,-2zM22.5,20h4c0.28147,0 0.5,0.21853 0.5,0.5v1.5h-5v-1.5c0,-0.28147 0.21853,-0.5 0.5,-0.5zM73.5,20h4c0.28147,0 0.5,0.21853 0.5,0.5v1.5h-5v-1.5c0,-0.28147 0.21853,-0.5 0.5,-0.5zM22,24h8v13.5c-0.00255,0.18032 0.09219,0.34804 0.24794,0.43894c0.15575,0.0909 0.34838,0.0909 0.50413,0c0.15575,-0.0909 0.25049,-0.25863 0.24794,-0.43894v-13.5h3v57h-3v-20.5c0.00212,-0.13532 -0.0507,-0.26572 -0.1464,-0.36141c-0.0957,-0.0957 -0.22609,-0.14852 -0.36141,-0.1464c-0.13261,0.00207 -0.25896,0.05673 -0.35127,0.15197c-0.0923,0.09523 -0.14299,0.22324 -0.14092,0.35584v20.5h-8c-4.98259,0 -9,-4.01741 -9,-9v-39c0,-4.98259 4.01741,-9 9,-9zM35,24h6h18h6v20.70508l-12.73047,6.63086c-0.11891,0.06186 -0.20801,0.16888 -0.24731,0.29703c-0.03929,0.12816 -0.02548,0.26672 0.03832,0.38461l4.46875,8.2207c0.1301,0.23951 0.42804,0.33072 0.66992,0.20508l24.53125,-12.77539c0.11892,-0.06186 0.20801,-0.16888 0.24731,-0.29704c0.03929,-0.12816 0.02548,-0.26672 -0.03832,-0.38461l-4.46875,-8.22461c-0.0897,-0.16561 -0.26485,-0.26678 -0.45312,-0.26172c-0.07562,0.00224 -0.14975,0.0216 -0.2168,0.05664l-6.80078,3.54297v-18.09961h8c4.98259,0 9,4.01741 9,9v39c0,4.98259 -4.01741,9 -9,9h-8v-24.5c0.00212,-0.13532 -0.0507,-0.26572 -0.1464,-0.36141c-0.0957,-0.0957 -0.22609,-0.14852 -0.36141,-0.1464c-0.13261,0.00207 -0.25896,0.05673 -0.35127,0.15197c-0.0923,0.09523 -0.14299,0.22324 -0.14092,0.35584v24.5h-3v-22.41797c0.00255,-0.18032 -0.09219,-0.34804 -0.24794,-0.43894c-0.15575,-0.0909 -0.34838,-0.0909 -0.50413,0c-0.15575,0.0909 -0.25049,0.25863 -0.24794,0.43894v22.41797h-30zM66,24h3v18.62109l-3,1.5625zM45.5,31c-1.79167,0 -3.19808,0.68988 -4.12305,1.73047c-0.92497,1.04059 -1.37695,2.40842 -1.37695,3.76953c0,1.36111 0.45198,2.72894 1.37695,3.76953c0.92497,1.04059 2.33138,1.73047 4.12305,1.73047c3.03164,0 5.5,-2.46836 5.5,-5.5c0,-3.03164 -2.46836,-5.5 -5.5,-5.5zM45.5,32c2.49121,0 4.5,2.0088 4.5,4.5c0,2.4912 -2.00879,4.5 -4.5,4.5c-1.54167,0 -2.63526,-0.56012 -3.37695,-1.39453c-0.7417,-0.83441 -1.12305,-1.96658 -1.12305,-3.10547c0,-1.13889 0.38135,-2.27106 1.12305,-3.10547c0.7417,-0.83441 1.83529,-1.39453 3.37695,-1.39453zM76.82617,39.66992l3.99219,7.3457l-23.64453,12.31445l-3.99219,-7.3418zM30.49219,50.99219c-0.13261,0.00207 -0.25896,0.05673 -0.35127,0.15197c-0.0923,0.09523 -0.14299,0.22324 -0.14092,0.35584v1c-0.00255,0.18032 0.09219,0.34804 0.24794,0.43894c0.15575,0.0909 0.34838,0.0909 0.50413,0c0.15575,-0.0909 0.25049,-0.25863 0.24794,-0.43894v-1c0.00212,-0.13532 -0.0507,-0.26572 -0.1464,-0.36141c-0.0957,-0.0957 -0.22609,-0.14852 -0.36141,-0.1464zM30.49219,54.99219c-0.13261,0.00207 -0.25896,0.05673 -0.35127,0.15197c-0.0923,0.09523 -0.14299,0.22324 -0.14092,0.35584v2c-0.00255,0.18032 0.09219,0.34804 0.24794,0.43894c0.15575,0.0909 0.34838,0.0909 0.50413,0c0.15575,-0.0909 0.25049,-0.25863 0.24794,-0.43894v-2c0.00212,-0.13532 -0.0507,-0.26572 -0.1464,-0.36141c-0.0957,-0.0957 -0.22609,-0.14852 -0.36141,-0.1464zM41.64258,64c-0.18183,0.01204 -0.34272,0.12204 -0.41992,0.28711l-2.17578,4.63672c-0.0565,0.12039 -0.06271,0.25833 -0.01726,0.38332c0.04545,0.12498 0.13881,0.22672 0.25945,0.2827l15.82422,7.36328c0.24973,0.11662 0.54674,0.00917 0.66406,-0.24023l2.17578,-4.63672c0.0565,-0.12039 0.06271,-0.25833 0.01726,-0.38332c-0.04545,-0.12498 -0.13881,-0.22672 -0.25945,-0.2827l-15.82422,-7.36328c-0.06066,-0.02842 -0.12642,-0.04436 -0.19336,-0.04687c-0.01692,-0.00086 -0.03386,-0.00086 -0.05078,0zM41.91602,65.16211l14.91797,6.94336l-1.75,3.73047l-14.91797,-6.94141z"></path></g></g></svg>