<?xml version="1.0" encoding="utf-8"?>
<!-- Generator: Adobe Illustrator 22.0.1, SVG Export Plug-In . SVG Version: 6.00 Build 0)  -->
<svg version="1.1" id="Layer_1" xmlns="http://www.w3.org/2000/svg" xmlns:xlink="http://www.w3.org/1999/xlink" x="0px" y="0px"
	 viewBox="0 0 512 512" style="enable-background:new 0 0 512 512;" xml:space="preserve">
<style type="text/css">
	.st0{fill:#35216D;}
	.st1{fill:#EDF3FC;}
	.st2{fill:#330D84;}
	.st3{fill:#FFBE1B;}
	.st4{fill:#0061F3;}
	.st5{fill:#8C7BFD;}
	.st6{fill:#FFFFFF;}
	.st7{fill:#5932AE;}
	.st8{fill:#1C46C4;}
	.st9{fill:#6857E5;}
	.st10{fill:#5D8EF9;}
	.st11{fill:#8AC9F9;}
	.st12{fill:#FFE37B;}
	.st13{fill:#FFD000;}
	.st14{fill:#2EF39E;}
	.st15{fill:#330D84;stroke:#330D84;stroke-width:0.6306;stroke-linecap:round;stroke-linejoin:round;stroke-miterlimit:10;}
	.st16{fill:#FFFFFF;stroke:#FFFFFF;stroke-width:0.737;stroke-linecap:round;stroke-linejoin:round;stroke-miterlimit:10;}
	.st17{fill:none;}
	.st18{fill:#FDB813;}
</style>
<g>
	<g>
		<g>
			<path class="st1" d="M255.999,40.928c-118.778,0-215.071,96.294-215.071,215.074c0,118.776,96.292,215.068,215.071,215.068
				S471.07,374.778,471.07,256.002C471.07,137.222,374.777,40.928,255.999,40.928z"/>
		</g>
	</g>
	<g>
		<g>
			<path class="st1" d="M255.999,1C115.391,1,1,115.392,1,256.002C1,396.609,115.391,511,255.999,511S511,396.609,511,256.002
				C511,115.392,396.607,1,255.999,1z M255.999,502.832c-136.103,0-246.83-110.728-246.83-246.83
				c0-136.104,110.727-246.833,246.83-246.833c136.102,0,246.832,110.729,246.832,246.833
				C502.831,392.104,392.101,502.832,255.999,502.832z"/>
		</g>
	</g>
	<path class="st2" d="M302.503,345.827c0-30.376,24.625-55,55-55c12.559,0,24.127,4.218,33.386,11.302V177.104
		c0-13.887-11.26-25.148-25.15-25.148H146.267c-13.893,0-25.155,11.262-25.155,25.148v157.789c0,13.892,11.263,25.152,25.155,25.152
		h158.102C303.158,355.508,302.503,350.745,302.503,345.827z"/>
	<circle class="st6" cx="300.422" cy="173.584" r="7.5"/>
	<circle class="st6" cx="330.866" cy="173.584" r="7.5"/>
	<path class="st6" d="M368.809,173.584c0,4.143-3.356,7.5-7.501,7.5c-4.142,0-7.499-3.357-7.499-7.5s3.358-7.5,7.499-7.5
		C365.452,166.084,368.809,169.441,368.809,173.584z"/>
	<path class="st9" d="M302.503,345.827c0-30.376,24.625-55,55-55c12.559,0,24.127,4.218,33.386,11.302V196.602H121.111v138.291
		c0,13.892,11.263,25.152,25.155,25.152h158.102C303.158,355.508,302.503,350.745,302.503,345.827z"/>
	<path class="st3" d="M412.503,345.827c0,30.376-24.624,54.999-55,54.999c-30.375,0-55-24.623-55-54.999c0-30.376,24.625-55,55-55
		C387.879,290.827,412.503,315.451,412.503,345.827z"/>
	<path class="st6" d="M383.836,337.826h-18.333v-18.333c0-4.418-3.582-8-8-8s-8,3.582-8,8v18.333h-18.333c-4.418,0-8,3.582-8,8
		s3.582,8,8,8h18.333v18.333c0,4.418,3.582,8,8,8s8-3.582,8-8v-18.333h18.333c4.418,0,8-3.582,8-8S388.255,337.826,383.836,337.826z
		"/>
	<rect x="145" y="226.419" class="st11" width="96" height="66.581"/>
	<rect x="200" y="304.419" class="st12" width="41" height="21.081"/>
	<rect x="145" y="304.419" class="st12" width="41" height="21.081"/>
	<path class="st6" d="M362.498,237.369h-99.995c-2.761,0-5-2.239-5-5s2.239-5,5-5h99.995c2.761,0,5,2.239,5,5
		S365.259,237.369,362.498,237.369z"/>
	<path class="st6" d="M362.498,259.369h-99.995c-2.761,0-5-2.239-5-5s2.239-5,5-5h99.995c2.761,0,5,2.239,5,5
		S365.259,259.369,362.498,259.369z"/>
	<path class="st6" d="M362.498,281.369h-99.995c-2.761,0-5-2.239-5-5s2.239-5,5-5h99.995c2.761,0,5,2.239,5,5
		S365.259,281.369,362.498,281.369z"/>
	<path class="st6" d="M305.498,303.369h-42.995c-2.761,0-5-2.239-5-5s2.239-5,5-5h42.995c2.761,0,5,2.239,5,5
		S308.259,303.369,305.498,303.369z"/>
	<path class="st6" d="M292.498,325.369h-29.995c-2.761,0-5-2.239-5-5s2.239-5,5-5h29.995c2.761,0,5,2.239,5,5
		S295.259,325.369,292.498,325.369z"/>
	<path class="st2" d="M259.462,103.271l2.892,0.724l-2.892,0.724c-16.931,4.242-30.145,17.46-34.386,34.392L224.348,142
		l-0.726-2.888c-4.241-16.931-17.458-30.149-34.394-34.392l-2.881-0.724l2.881-0.724c16.936-4.242,30.153-17.464,34.394-34.386
		L224.348,66l0.728,2.886C229.317,85.808,242.531,99.029,259.462,103.271L259.462,103.271z"/>
	<path class="st2" d="M325.831,117.176l1.522,0.381l-1.522,0.381c-8.911,2.233-15.864,9.189-18.096,18.1l-0.383,1.52l-0.382-1.52
		c-2.232-8.911-9.188-15.867-18.101-18.1l-1.516-0.381l1.516-0.381c8.913-2.233,15.869-9.191,18.101-18.096l0.382-1.519l0.383,1.519
		C309.967,107.985,316.921,114.944,325.831,117.176L325.831,117.176z"/>
	<path class="st3" d="M438.035,301.098L439,301.34l-0.965,0.242c-5.647,1.415-10.054,5.824-11.469,11.471l-0.243,0.963l-0.242-0.963
		c-1.415-5.647-5.823-10.056-11.471-11.471l-0.961-0.242l0.961-0.242c5.649-1.415,10.057-5.825,11.471-11.469l0.242-0.963
		l0.243,0.963C427.981,295.273,432.388,299.683,438.035,301.098L438.035,301.098z"/>
	<path class="st10" d="M112.342,290.443l1.522,0.381l-1.522,0.381c-8.911,2.233-15.864,9.189-18.096,18.1l-0.383,1.52l-0.382-1.52
		c-2.232-8.911-9.188-15.867-18.101-18.1l-1.516-0.381l1.516-0.381c8.913-2.233,15.869-9.191,18.101-18.096l0.382-1.519l0.383,1.519
		C96.478,281.252,103.432,288.21,112.342,290.443L112.342,290.443z"/>
	<path class="st3" d="M295.502,406.577l1.998,0.501l-1.998,0.5c-11.697,2.931-20.826,12.063-23.756,23.76l-0.503,1.995l-0.501-1.995
		c-2.93-11.697-12.061-20.83-23.762-23.76l-1.991-0.5l1.991-0.501c11.701-2.931,20.832-12.065,23.762-23.756l0.501-1.994
		l0.503,1.994C274.676,394.511,283.805,403.646,295.502,406.577L295.502,406.577z"/>
</g>
</svg>
