<?xml version="1.0" encoding="utf-8"?>
<!-- Generator: Adobe Illustrator 19.0.0, SVG Export Plug-In . SVG Version: 6.00 Build 0)  -->
<svg version="1.1" id="icons" xmlns="http://www.w3.org/2000/svg" xmlns:xlink="http://www.w3.org/1999/xlink" x="0px" y="0px"
	 viewBox="0 0 64 64" style="enable-background:new 0 0 64 64;" xml:space="preserve">
<style type="text/css">
	.st0{display:none;}
	.st1{display:inline;fill:none;stroke:#414042;stroke-miterlimit:10;stroke-dasharray:2;}
	.st2{display:inline;}
	.st3{fill:none;stroke:#414042;stroke-miterlimit:10;}
	.st4{fill:none;stroke:#414042;stroke-miterlimit:10;stroke-dasharray:1.7897,1.7897;}
	.st5{fill:none;stroke:#414042;stroke-miterlimit:10;stroke-dasharray:2.0065,2.0065;}
	.st6{display:inline;fill:#F5AB35;}
	.st7{display:inline;fill:none;stroke:#414042;stroke-miterlimit:10;}
	.st8{display:inline;fill:#29A189;}
	.st9{display:inline;fill:#5EDFC5;}
	.st10{display:inline;fill:#36D7B7;}
	.st11{display:inline;fill:#F7BC5D;}
	.st12{display:inline;fill:#FFFFFF;}
	.st13{display:inline;fill:#F1F2F2;}
	.st14{display:inline;fill:#E6E7E8;}
	.st15{display:inline;fill:none;stroke:#414042;stroke-miterlimit:10;stroke-dasharray:3;}
	.st16{display:inline;fill:#86E7D4;}
	.st17{display:inline;fill:#D1D3D4;}
	.st18{display:inline;fill:#6D6E71;}
	.st19{fill:#36D7B7;}
	.st20{fill:#A7A9AC;}
	.st21{fill:#5EDFC5;}
	.st22{fill:#939598;}
	.st23{fill:#E6E7E8;}
	.st24{fill:#D1D3D4;}
	.st25{fill:#F1F2F2;}
	.st26{fill:#86E7D4;}
	.st27{fill:#F5AB35;}
	.st28{display:inline;fill:#939598;}
	.st29{fill:#FFFFFF;}
	.st30{display:inline;fill:#BCBEC0;}
	.st31{display:inline;fill:#F9CD86;}
	.st32{display:inline;fill:#414042;}
	.st33{fill:#F9CD86;}
	.st34{display:inline;fill:#58595B;}
	.st35{fill:#414042;}
	.st36{fill:none;stroke:#BCBEC0;stroke-linecap:round;stroke-miterlimit:10;}
	.st37{fill:#6D6E71;}
	.st38{fill:#F7BC5D;}
	.st39{display:inline;fill:none;stroke:#414042;stroke-miterlimit:10;stroke-dasharray:1;}
	.st40{display:inline;fill:#A7A9AC;}
	.st41{display:inline;fill:#808285;}
	.st42{fill:#1B6C5C;}
	.st43{fill:none;stroke:#414042;stroke-linecap:round;stroke-miterlimit:10;}
	.st44{display:inline;fill:none;stroke:#F5AB35;stroke-miterlimit:10;}
	.st45{display:inline;fill:none;stroke:#414042;stroke-linecap:round;stroke-miterlimit:10;}
	.st46{display:inline;opacity:0.26;fill:#231F20;}
	.st47{display:inline;fill:none;stroke:#F5AB35;stroke-linecap:round;stroke-miterlimit:10;}
	.st48{display:inline;fill:none;stroke:#F5AB35;stroke-width:0.5;stroke-linecap:round;stroke-miterlimit:10;}
	.st49{display:inline;fill:none;stroke:#36D7B7;stroke-width:0.5;stroke-linecap:round;stroke-miterlimit:10;}
	.st50{fill:none;stroke:#BCBEC0;stroke-miterlimit:10;}
</style>
<g id="XMLID_105_" class="st0">
	<line id="XMLID_72_" class="st1" x1="29.5" y1="15.1" x2="41.1" y2="36.8"/>
	<g id="XMLID_70_" class="st2">
		<g id="XMLID_49_">
			<line id="XMLID_81_" class="st3" x1="26.5" y1="19.1" x2="26.7" y2="20.1"/>
			<line id="XMLID_71_" class="st4" x1="27.1" y1="21.8" x2="30.2" y2="34.9"/>
			<line id="XMLID_50_" class="st3" x1="30.4" y1="35.8" x2="30.6" y2="36.8"/>
		</g>
	</g>
	<g id="XMLID_69_" class="st2">
		<g id="XMLID_42_">
			<line id="XMLID_45_" class="st3" x1="40.4" y1="21.5" x2="41.1" y2="22.2"/>
			<line id="XMLID_44_" class="st5" x1="42.5" y1="23.7" x2="52.8" y2="34.6"/>
			<line id="XMLID_43_" class="st3" x1="53.5" y1="35.3" x2="54.2" y2="36.1"/>
		</g>
	</g>
	<circle id="XMLID_56_" class="st6" cx="34.9" cy="26.3" r="4.6"/>
	<circle id="XMLID_57_" class="st7" cx="34.9" cy="26.3" r="4.6"/>
	<line id="XMLID_52_" class="st7" x1="25.8" y1="16.6" x2="11.9" y2="33.8"/>
	<line id="XMLID_54_" class="st7" x1="11.9" y1="33.8" x2="25.8" y2="50.9"/>
	<circle id="XMLID_47_" class="st8" cx="28.5" cy="13.2" r="3"/>
	<polygon id="XMLID_13_" class="st9" points="43,22 27.9,30.2 25.4,19.7 35.6,14.2 	"/>
	
		<rect id="XMLID_46_" x="23.7" y="13" transform="matrix(0.8807 -0.4737 0.4737 0.8807 -3.6094 15.7872)" class="st10" width="11.6" height="4.2"/>
	<circle id="XMLID_51_" class="st8" cx="11.9" cy="33.8" r="2.2"/>
	<circle id="XMLID_68_" class="st9" cx="11.9" cy="33.8" r="1"/>
	<rect id="XMLID_55_" x="18.4" y="50.6" class="st6" width="22" height="2.4"/>
	<rect id="XMLID_58_" x="18.4" y="50.6" class="st11" width="22" height="1.1"/>
	<rect id="XMLID_53_" x="18.4" y="50.6" class="st7" width="22" height="2.4"/>
	<rect id="XMLID_59_" x="29.8" y="48.8" class="st10" width="22.5" height="4.6"/>
	<rect id="XMLID_61_" x="46.4" y="48.8" class="st12" width="5.9" height="4.6"/>
	<rect id="XMLID_62_" x="29.8" y="48.8" class="st12" width="5.9" height="5"/>
	<rect id="XMLID_60_" x="29.8" y="48.8" class="st7" width="22.5" height="4.6"/>
	<rect id="XMLID_67_" x="31.8" y="37.9" class="st10" width="22.5" height="4.6"/>
	<rect id="XMLID_66_" x="35.1" y="39.3" class="st13" width="15.8" height="1.8"/>
	<rect id="XMLID_63_" x="31.8" y="37.9" class="st7" width="22.5" height="4.6"/>
	<rect id="XMLID_65_" x="32.9" y="43" class="st14" width="18.5" height="4.6"/>
	<polyline id="XMLID_64_" class="st7" points="30.7,43 51.4,43 51.4,47.6 30.7,47.6 	"/>
</g>
<g id="XMLID_106_" class="st0">
	<path id="XMLID_101_" class="st12" d="M45.9,54H13.7v-3.4h32.2l4.3,1.6c0.1,0,0.1,0.2,0,0.2L45.9,54z"/>
	<path id="XMLID_78_" class="st13" d="M35.2,40.4v5.4c0,1.7-1.4,3-3,3l0,0c-1.7,0-3-1.4-3-3v-5.4H35.2z"/>
	<path id="XMLID_79_" class="st7" d="M35.2,40.4v5.4c0,1.7-1.4,3-3,3l0,0c-1.7,0-3-1.4-3-3v-5.4H35.2z"/>
	<circle id="XMLID_75_" class="st15" cx="32.3" cy="23" r="13.1"/>
	<circle id="XMLID_73_" class="st6" cx="32.3" cy="23" r="11"/>
	<rect id="XMLID_74_" x="27" y="27.4" class="st6" width="10.6" height="12.1"/>
	<rect id="XMLID_77_" x="27" y="38.9" class="st14" width="10.9" height="3"/>
	<rect id="XMLID_76_" x="27" y="38.9" class="st7" width="10.9" height="3"/>
	<line id="XMLID_91_" class="st7" x1="29.5" y1="43.6" x2="32.9" y2="43.6"/>
	<line id="XMLID_80_" class="st7" x1="32.2" y1="45.4" x2="35.6" y2="45.4"/>
	<path id="XMLID_92_" class="st10" d="M39.8,21.8l-1.4,0c-0.2-0.7-0.4-1.4-0.8-2l1-1c0.4-0.3,0.4-0.9,0-1.3l-0.7-0.7
		c-0.3-0.3-0.9-0.4-1.3,0l-1,1c-0.6-0.4-1.3-0.7-2-0.8v-1.4c0-0.5-0.4-0.9-0.9-0.9h-1c-0.5,0-0.9,0.4-0.9,0.9v1.4
		c-0.7,0.2-1.4,0.4-2,0.8l-1-1c-0.3-0.3-0.9-0.4-1.3,0l-0.7,0.7c-0.3,0.3-0.4,0.9,0,1.3l1,1c-0.4,0.6-0.7,1.3-0.8,2l-1.4,0
		c-0.5,0-0.9,0.4-0.9,0.9l0,1c0,0.5,0.4,0.9,0.9,0.9l1.4,0c0.2,0.7,0.4,1.4,0.8,2l-1,1c-0.3,0.3-0.4,0.9,0,1.3l0.7,0.7
		c0.4,0.4,0.9,0.4,1.3,0l1-1c0.6,0.4,1.3,0.7,2,0.8l0,1.4c0,0.5,0.4,0.9,0.9,0.9l1,0c0.5,0,0.9-0.4,0.9-0.9l0-1.4
		c0.7-0.2,1.4-0.4,2-0.8l1,1c0.3,0.3,0.9,0.3,1.3,0l0.7-0.7c0.4-0.3,0.4-0.9,0-1.3l-1-1c0.4-0.6,0.7-1.3,0.8-2l1.4,0
		c0.5,0,0.9-0.4,0.9-0.9v-1C40.7,22.2,40.3,21.8,39.8,21.8z M32.2,26c-1.6,0-2.8-1.3-2.8-2.8c0-1.6,1.3-2.8,2.8-2.8
		c1.6,0,2.8,1.3,2.8,2.8C35.1,24.7,33.8,26,32.2,26z"/>
	<path id="XMLID_93_" class="st7" d="M39.8,21.8l-1.4,0c-0.2-0.7-0.4-1.4-0.8-2l1-1c0.4-0.3,0.4-0.9,0-1.3l-0.7-0.7
		c-0.3-0.3-0.9-0.4-1.3,0l-1,1c-0.6-0.4-1.3-0.7-2-0.8v-1.4c0-0.5-0.4-0.9-0.9-0.9h-1c-0.5,0-0.9,0.4-0.9,0.9v1.4
		c-0.7,0.2-1.4,0.4-2,0.8l-1-1c-0.3-0.3-0.9-0.4-1.3,0l-0.7,0.7c-0.3,0.3-0.4,0.9,0,1.3l1,1c-0.4,0.6-0.7,1.3-0.8,2l-1.4,0
		c-0.5,0-0.9,0.4-0.9,0.9l0,1c0,0.5,0.4,0.9,0.9,0.9l1.4,0c0.2,0.7,0.4,1.4,0.8,2l-1,1c-0.3,0.3-0.4,0.9,0,1.3l0.7,0.7
		c0.4,0.4,0.9,0.4,1.3,0l1-1c0.6,0.4,1.3,0.7,2,0.8l0,1.4c0,0.5,0.4,0.9,0.9,0.9l1,0c0.5,0,0.9-0.4,0.9-0.9l0-1.4
		c0.7-0.2,1.4-0.4,2-0.8l1,1c0.3,0.3,0.9,0.3,1.3,0l0.7-0.7c0.4-0.3,0.4-0.9,0-1.3l-1-1c0.4-0.6,0.7-1.3,0.8-2l1.4,0
		c0.5,0,0.9-0.4,0.9-0.9v-1C40.7,22.2,40.3,21.8,39.8,21.8z M32.2,26c-1.6,0-2.8-1.3-2.8-2.8c0-1.6,1.3-2.8,2.8-2.8
		c1.6,0,2.8,1.3,2.8,2.8C35.1,24.7,33.8,26,32.2,26z"/>
	<rect id="XMLID_99_" x="13.7" y="50.6" class="st10" width="32.2" height="3.4"/>
	<rect id="XMLID_104_" x="13.7" y="50.6" class="st16" width="32.2" height="1.7"/>
	<rect id="XMLID_100_" x="13.7" y="50.5" class="st12" width="4" height="3.6"/>
	<path id="XMLID_98_" class="st7" d="M45.9,54H13.7v-3.4h32.2l4.3,1.6c0.1,0,0.1,0.2,0,0.2L45.9,54z"/>
	<line id="XMLID_103_" class="st7" x1="17.7" y1="50.6" x2="17.7" y2="53.6"/>
	<line id="XMLID_102_" class="st7" x1="45.9" y1="50.8" x2="45.9" y2="53.8"/>
</g>
<g id="XMLID_147_" class="st0">
	<rect id="XMLID_109_" x="26" y="43.4" class="st13" width="12" height="7.1"/>
	<rect id="XMLID_115_" x="26" y="43.4" class="st17" width="12" height="3.6"/>
	<rect id="XMLID_114_" x="26" y="43.4" class="st7" width="12" height="7.1"/>
	<rect id="XMLID_112_" x="12.1" y="16.1" class="st18" width="39.9" height="23.7"/>
	<rect id="XMLID_110_" x="12.1" y="39" class="st12" width="39.9" height="5.4"/>
	<rect id="XMLID_108_" x="12.1" y="16.1" class="st7" width="39.9" height="28.2"/>
	<line id="XMLID_113_" class="st7" x1="12.1" y1="39.1" x2="51.9" y2="39.1"/>
	<line id="XMLID_116_" class="st7" x1="23.7" y1="50.7" x2="40.5" y2="50.7"/>
	<path id="XMLID_123_" class="st13" d="M33.1,37.2h16.6V13.3H34.6c-1.4,0-2.6,1.1-2.6,2.6v20.2C32,36.7,32.5,37.2,33.1,37.2z"/>
	<path id="XMLID_118_" class="st12" d="M30.9,37.2H14.3V13.3h15.2c1.4,0,2.6,1.1,2.6,2.6v20.2C32.1,36.7,31.6,37.2,30.9,37.2z"/>
	<path id="XMLID_146_" class="st12" d="M34,13.4c-1,0.2-1.7,1-2,1.9v21.2c0.2,0.4,0.6,0.7,1.1,0.7H34V13.4z"/>
	<path id="XMLID_117_" class="st13" d="M30.1,13.4c1,0.2,1.7,1,2,1.9v21.2c-0.2,0.4-0.6,0.7-1.1,0.7h-0.9V13.4z"/>
	<line id="XMLID_126_" class="st7" x1="16.2" y1="20.7" x2="29.3" y2="20.7"/>
	<line id="XMLID_125_" class="st7" x1="16.2" y1="23.3" x2="29.3" y2="23.3"/>
	<line id="XMLID_136_" class="st7" x1="16.2" y1="25.9" x2="29.3" y2="25.9"/>
	<line id="XMLID_137_" class="st7" x1="16.2" y1="28.5" x2="29.3" y2="28.5"/>
	<line id="XMLID_138_" class="st7" x1="16.2" y1="31.1" x2="29.3" y2="31.1"/>
	<line id="XMLID_143_" class="st7" x1="35" y1="20.7" x2="48" y2="20.7"/>
	<line id="XMLID_142_" class="st7" x1="35" y1="23.3" x2="48" y2="23.3"/>
	<line id="XMLID_141_" class="st7" x1="35" y1="25.9" x2="48" y2="25.9"/>
	<line id="XMLID_140_" class="st7" x1="35" y1="28.5" x2="48" y2="28.5"/>
	<line id="XMLID_139_" class="st7" x1="35" y1="31.1" x2="48" y2="31.1"/>
	<polygon id="XMLID_144_" class="st10" points="28.7,35.9 27.4,35.4 26,35.9 26,13.3 28.7,13.3 	"/>
	<path id="XMLID_121_" class="st7" d="M32,15.9c0-1.4,1.1-2.6,2.6-2.6h15.2v5.1"/>
	<path id="XMLID_124_" class="st7" d="M31.8,15.9c0-1.4-1.1-2.6-2.6-2.6H14.3v6.2"/>
	<line id="XMLID_145_" class="st7" x1="14.3" y1="20.9" x2="14.3" y2="27.2"/>
	<line id="XMLID_111_" class="st7" x1="49.8" y1="19.8" x2="49.8" y2="26.2"/>
</g>
<g id="XMLID_168_" class="st0">
	<rect id="XMLID_156_" x="14.7" y="12.4" class="st13" width="23.8" height="34.9"/>
	<line id="XMLID_160_" class="st7" x1="27.1" y1="17.6" x2="35.8" y2="17.6"/>
	<line id="XMLID_157_" class="st7" x1="27.1" y1="21.1" x2="35.8" y2="21.1"/>
	<line id="XMLID_161_" class="st7" x1="27.1" y1="24.6" x2="35.8" y2="24.6"/>
	<line id="XMLID_162_" class="st7" x1="18.3" y1="28.1" x2="35.8" y2="28.1"/>
	<line id="XMLID_163_" class="st7" x1="18.3" y1="31.6" x2="35.8" y2="31.6"/>
	<line id="XMLID_164_" class="st7" x1="18.3" y1="35.1" x2="35.8" y2="35.1"/>
	<line id="XMLID_165_" class="st7" x1="18.3" y1="38.6" x2="35.8" y2="38.6"/>
	<line id="XMLID_166_" class="st7" x1="18.3" y1="42.2" x2="26.6" y2="42.2"/>
	<g id="XMLID_167_" class="st2">
		<path id="XMLID_169_" class="st19" d="M20.4,23.2l-0.8,1.7h-1.4l3.3-7.5H23l3.3,7.5H25l-0.8-1.7H20.4z M23.7,22l-1.4-3.1L20.9,22
			H23.7z"/>
	</g>
	<g id="XMLID_148_" class="st2">
		<line id="XMLID_150_" class="st3" x1="39.5" y1="31.5" x2="39.5" y2="35.5"/>
		<path id="XMLID_153_" class="st20" d="M39.5,12.4c-5.4,0-9.8,4.4-9.8,9.8c0,5.4,4.4,9.8,9.8,9.8c5.4,0,9.8-4.4,9.8-9.8
			C49.3,16.8,44.9,12.4,39.5,12.4z M39.5,30.9c-4.8,0-8.7-3.9-8.7-8.7c0-4.8,3.9-8.7,8.7-8.7s8.7,3.9,8.7,8.7
			C48.2,27,44.3,30.9,39.5,30.9z"/>
		<path id="XMLID_155_" class="st3" d="M39.5,15.4c3.7,0,6.7,3,6.7,6.7"/>
		<path id="XMLID_158_" class="st21" d="M37.5,34.3v15.4c0,1.1,0.9,1.9,1.9,1.9V34.3H37.5z"/>
		<path id="XMLID_159_" class="st19" d="M39.5,34.3v17.3c1.1,0,1.9-0.9,1.9-1.9V34.3H39.5z"/>
		<line id="XMLID_154_" class="st3" x1="37.4" y1="37.1" x2="41.5" y2="37.1"/>
		<line id="XMLID_149_" class="st3" x1="37.4" y1="38.8" x2="41.5" y2="38.8"/>
	</g>
</g>
<g id="XMLID_190_" class="st0">
	<line id="XMLID_179_" class="st7" x1="29.7" y1="37.6" x2="29.7" y2="44.3"/>
	<line id="XMLID_185_" class="st7" x1="19.8" y1="27.6" x2="19.8" y2="34.2"/>
	<line id="XMLID_192_" class="st7" x1="17.3" y1="31.4" x2="17.3" y2="38.1"/>
	<line id="XMLID_194_" class="st7" x1="44.4" y1="28.1" x2="44.4" y2="34.7"/>
	<line id="XMLID_196_" class="st7" x1="46.9" y1="26.8" x2="46.9" y2="33.4"/>
	<line id="XMLID_195_" class="st7" x1="44.4" y1="37.7" x2="44.4" y2="35.7"/>
	<line id="XMLID_197_" class="st7" x1="38.5" y1="43.2" x2="38.5" y2="39.1"/>
	<line id="XMLID_191_" class="st7" x1="19.8" y1="39.1" x2="19.8" y2="36.1"/>
	<line id="XMLID_193_" class="st7" x1="25" y1="42.4" x2="25" y2="37.6"/>
	<line id="XMLID_180_" class="st7" x1="34.1" y1="37.6" x2="34.1" y2="44.3"/>
	<line id="XMLID_174_" class="st7" x1="31.9" y1="39.1" x2="31.9" y2="45.8"/>
	<g id="XMLID_186_" class="st2">
		<polygon id="XMLID_177_" class="st22" points="35.3,36.6 28.5,36.6 29.7,34.7 34.2,34.7 		"/>
		<path id="XMLID_173_" class="st23" d="M22.2,35.7l6.3-2.3v-8.8l-3.6,2.2c-1.7,1-2.7,2.9-2.7,4.8V35.7z"/>
		<path id="XMLID_178_" class="st23" d="M41.7,35.7l-6.3-2.3v-8.8l3.6,2.2c1.7,1,2.7,2.9,2.7,4.8V35.7z"/>
		<path id="XMLID_183_" class="st24" d="M37.8,27.5c0-0.5,0-1-0.1-1.5l-2.3-1.4v8.8l2.4,0.9V27.5z"/>
		<path id="XMLID_181_" class="st24" d="M26,27.5c0-0.5,0-1,0.1-1.5l2.3-1.4v8.8L26,34.2V27.5z"/>
		<path id="XMLID_172_" class="st25" d="M36.3,35.1h-8.7V17c0-2.1,1-4.1,2.6-5.4L31,11c0.6-0.4,1.3-0.4,1.9,0l0.9,0.7
			c1.6,1.3,2.6,3.2,2.6,5.2V35.1z"/>
		<circle id="XMLID_176_" class="st26" cx="31.9" cy="22.5" r="2.2"/>
		<circle id="XMLID_175_" class="st3" cx="31.9" cy="22.5" r="2.2"/>
		<path id="XMLID_184_" class="st27" d="M31,11l-0.8,0.6c-1.2,0.9-2.1,2.3-2.4,3.7h8.3c-0.4-1.5-1.2-2.8-2.4-3.7L32.8,11
			C32.3,10.6,31.5,10.6,31,11z"/>
	</g>
	<path id="XMLID_189_" class="st13" d="M51.3,52.6c0-0.9-0.7-1.7-1.7-1.7c-0.3,0-0.6,0.1-0.8,0.2c-0.4-1.1-1.2-2-2.3-2.5
		c-0.1-2.2-1.9-4-4.2-4c-1.9,0-3.4,1.2-4,2.9c-0.3-0.5-0.8-0.8-1.4-0.8c-0.6,0-1.1,0.3-1.4,0.8c-0.5-0.8-1.3-1.3-2.3-1.3
		c-0.7,0-1.4,0.3-1.9,0.7c-0.6-1.1-1.8-1.9-3.2-1.9c-1.9,0-3.5,1.4-3.7,3.3c-0.5-0.2-1-0.3-1.5-0.3c-0.4,0-0.7,0.1-1.1,0.2
		C21.1,47.5,20,47,18.8,47c-2,0-3.6,1.4-4,3.2c-1.1,0-2,0.9-2,2c0,0.4,0.1,0.8,0.3,1.1h38.1C51.2,53.1,51.3,52.8,51.3,52.6z"/>
	<path id="XMLID_188_" class="st7" d="M49.6,50.9c-0.3,0-0.6,0.1-0.8,0.2c-0.4-1.1-1.2-2-2.3-2.5c-0.1-2.2-1.9-4-4.2-4
		c-1.9,0-3.4,1.2-4,2.9c-0.3-0.5-0.8-0.8-1.4-0.8"/>
	<path id="XMLID_182_" class="st7" d="M31.4,47.1c-0.6-1.1-1.8-1.9-3.2-1.9c-1.9,0-3.5,1.4-3.7,3.3c-0.5-0.2-1-0.3-1.5-0.3
		c-0.4,0-0.7,0.1-1.1,0.2C21.1,47.5,20,47,18.8,47c-2,0-3.6,1.4-4,3.2"/>
	<line id="XMLID_187_" class="st7" x1="13" y1="53.3" x2="51.1" y2="53.3"/>
</g>
<g id="XMLID_238_" class="st0">
	<polygon id="XMLID_201_" class="st28" points="47.4,11.9 17.4,11.9 17.4,43.7 19.1,46.3 47.4,46.3 	"/>
	<polygon id="XMLID_200_" class="st13" points="45.3,46.1 19.1,46.1 17.4,44.8 17.4,40 45.3,40 	"/>
	<polygon id="XMLID_199_" class="st17" points="46.3,11.9 17.4,11.9 17.4,42 19.1,40.1 46.3,40.1 	"/>
	<path id="XMLID_231_" class="st12" d="M44.8,52H15.2v-3.1h29.5l3.9,1.5c0.1,0,0.1,0.1,0,0.2L44.8,52z"/>
	<rect id="XMLID_215_" x="15.2" y="48.9" class="st10" width="29.5" height="3.1"/>
	<rect id="XMLID_214_" x="15.2" y="48.9" class="st16" width="29.5" height="1.6"/>
	<rect id="XMLID_213_" x="15.2" y="48.8" class="st12" width="3.7" height="3.3"/>
	<path id="XMLID_212_" class="st7" d="M44.8,52H15.2v-3.1h29.5l3.9,1.5c0.1,0,0.1,0.1,0,0.2L44.8,52z"/>
	<line id="XMLID_211_" class="st7" x1="18.9" y1="48.9" x2="18.9" y2="51.6"/>
	<line id="XMLID_210_" class="st7" x1="44.8" y1="49.1" x2="44.8" y2="51.8"/>
	<path id="XMLID_198_" class="st7" d="M47.8,46.1H20.2c-1.6,0-2.9-0.9-2.9-1.9v-2.3c0-1,1.3-1.9,2.9-1.9h26.5"/>
	<polyline id="XMLID_203_" class="st7" points="17.4,41.9 17.4,11.9 26.8,11.9 	"/>
	<polygon id="XMLID_202_" class="st6" points="27.4,44.8 25.4,43.9 23.4,44.8 23.4,41 27.4,41 	"/>
	<line id="XMLID_205_" class="st7" x1="28.8" y1="11.9" x2="36.3" y2="11.9"/>
	<line id="XMLID_204_" class="st7" x1="22.6" y1="21.4" x2="42.6" y2="21.4"/>
	<line id="XMLID_206_" class="st7" x1="22.6" y1="24.6" x2="42.6" y2="24.6"/>
	<line id="XMLID_207_" class="st7" x1="22.6" y1="24.6" x2="42.6" y2="24.6"/>
	<line id="XMLID_208_" class="st7" x1="28.4" y1="27.7" x2="36.3" y2="27.7"/>
</g>
<g id="XMLID_259_">
	<path id="XMLID_243_" class="st24" d="M51,49.4H12.8c-0.6,0-1-0.5-1-1V25.5c0-0.6,0.4-1,1-1H51c0.6,0,1,0.4,1,1v22.9
		C52,48.9,51.6,49.4,51,49.4z"/>
	<rect id="XMLID_242_" x="13.7" y="26.7" class="st29" width="36.1" height="19.5"/>
	<path id="XMLID_241_" class="st25" d="M51.5,50.7H12.2c-0.9,0-1.7-0.7-1.9-1.6l-0.3-1.7h43.9l-0.2,1.5
		C53.5,49.9,52.6,50.7,51.5,50.7z"/>
	<path id="XMLID_240_" class="st3" d="M51.5,50.7H12.2c-0.9,0-1.7-0.7-1.9-1.6l-0.3-1.7h43.9l-0.2,1.5
		C53.5,49.9,52.6,50.7,51.5,50.7z"/>
	<rect id="XMLID_244_" x="15.6" y="29.5" class="st27" width="15.7" height="8.5"/>
	<rect id="XMLID_245_" x="33.6" y="29.5" class="st24" width="3.9" height="3.9"/>
	<rect id="XMLID_247_" x="33.6" y="34.1" class="st25" width="3.9" height="3.9"/>
	<rect id="XMLID_248_" x="33.6" y="38.7" class="st24" width="3.9" height="3.9"/>
	<line id="XMLID_249_" class="st3" x1="39.2" y1="30" x2="47.7" y2="30"/>
	<line id="XMLID_246_" class="st3" x1="39.2" y1="32" x2="44" y2="32"/>
	<line id="XMLID_251_" class="st3" x1="39.2" y1="35" x2="47.7" y2="35"/>
	<line id="XMLID_250_" class="st3" x1="39.2" y1="37" x2="44" y2="37"/>
	<line id="XMLID_253_" class="st3" x1="39.2" y1="40" x2="47.7" y2="40"/>
	<line id="XMLID_254_" class="st3" x1="16.8" y1="42" x2="29" y2="42"/>
	<line id="XMLID_252_" class="st3" x1="39.2" y1="42.1" x2="44" y2="42.1"/>
	<path id="XMLID_239_" class="st19" d="M20.6,13.3v13.5h1.7v2.3v4.3c0,0.2,0.3,0.3,0.4,0.2l5.7-6.8h17V13.3H20.6z"/>
	<path id="XMLID_258_" class="st3" d="M20.6,13.3v13.5h1.7v2.3v4.3c0,0.2,0.3,0.3,0.4,0.2l5.7-6.8h17V13.3H20.6z"/>
	<line id="XMLID_255_" class="st3" x1="23.6" y1="16.7" x2="41.6" y2="16.7"/>
	<line id="XMLID_256_" class="st3" x1="23.6" y1="19.8" x2="41.6" y2="19.8"/>
	<line id="XMLID_257_" class="st3" x1="23.6" y1="22.8" x2="34.3" y2="22.8"/>
</g>
<g id="XMLID_287_" class="st0">
	<path id="XMLID_284_" class="st13" d="M32.2,53.9h-0.4c-5.4,0-9.9-11.9-9.9-14.4V24.9c0-5.4,4.4-9.9,9.9-9.9h0.4
		c5.4,0,9.9,4.4,9.9,9.9v14.7C42.1,42.1,37.7,53.9,32.2,53.9z"/>
	<path id="XMLID_122_" class="st7" d="M38.3,49.3c-1.7,2.6-3.8,4.6-6,4.6h-0.4c-2.3,0-4.3-2.1-6-4.6"/>
	<path id="XMLID_299_" class="st30" d="M22,27.8v12.7c0.3,1.5,1.1,4,2.4,6.4C26,46,27,44.4,27,42.5v-9.7C27,30,24.8,27.8,22,27.8z"
		/>
	<path id="XMLID_301_" class="st30" d="M37.1,32.8v9.7c0,1.9,1.1,3.5,2.6,4.3c1.4-2.8,2.3-5.6,2.4-6.9V27.8
		C39.3,27.8,37.1,30,37.1,32.8z"/>
	<path id="XMLID_295_" class="st17" d="M32,13.8c-5.6,0-10.1,4.5-10.1,10.1v3.6c0,0.6,1.6,0.6,2.3,0.6c7.9,0.4,7.8,3.4,7.8,3.4
		s0.1-2.9,8.1-3.4c0.6,0,2,0,2-0.6v-3.6C42.1,18.4,37.6,13.8,32,13.8z"/>
	<path id="XMLID_286_" class="st7" d="M24.2,28.2c7.9,0.4,7.8,3.4,7.8,3.4s0.1-2.9,8.1-3.4"/>
	<path id="XMLID_275_" class="st12" d="M44.8,47.2H15.2V44h29.6l3.9,1.5c0.1,0,0.1,0.1,0,0.2L44.8,47.2z"/>
	<rect id="XMLID_274_" x="15.2" y="44" class="st6" width="29.6" height="3.1"/>
	<rect id="XMLID_273_" x="15.2" y="44" class="st31" width="29.6" height="1.6"/>
	<rect id="XMLID_272_" x="15.2" y="43.9" class="st12" width="3.7" height="3.3"/>
	<path id="XMLID_271_" class="st7" d="M44.8,47.2H15.2V44h29.6l3.9,1.5c0.1,0,0.1,0.1,0,0.2L44.8,47.2z"/>
	<line id="XMLID_268_" class="st7" x1="18.9" y1="44" x2="18.9" y2="46.8"/>
	<line id="XMLID_266_" class="st7" x1="44.8" y1="44.2" x2="44.8" y2="47"/>
	<circle id="XMLID_260_" class="st30" cx="27" cy="22.5" r="4.3"/>
	<circle id="XMLID_264_" class="st12" cx="27.5" cy="21.6" r="4.3"/>
	<circle id="XMLID_300_" class="st30" cx="37.2" cy="22.3" r="4.3"/>
	<circle id="XMLID_263_" class="st12" cx="36.4" cy="21.6" r="4.3"/>
	<circle id="XMLID_261_" class="st7" cx="27.5" cy="21.6" r="4.3"/>
	<circle id="XMLID_262_" class="st7" cx="36.4" cy="21.6" r="4.3"/>
	<circle id="XMLID_267_" class="st32" cx="35.3" cy="21.4" r="1.5"/>
	<circle id="XMLID_265_" class="st32" cx="28.5" cy="21.4" r="1.5"/>
	<path id="XMLID_270_" class="st7" d="M41.9,13.1c-1.6,4.4-6.7,4-6.7,4c-1.3,0-2.4,1.1-2.4,2.4l0,0"/>
	<path id="XMLID_316_" class="st7" d="M22,13.1c1.6,4.4,6.7,4,6.7,4c1.3,0,2.4,1.1,2.4,2.4l0,0"/>
	<g id="XMLID_314_" class="st2">
		<path id="XMLID_278_" class="st27" d="M30.4,23.9l1.4,4c0.1,0.2,0.3,0.2,0.5,0l1.4-4c0.1-0.2,0.1-0.6-0.2-0.7l-1-0.8
			c-0.2-0.1-0.6-0.1-0.8,0l-1,0.8C30.3,23.4,30.3,23.7,30.4,23.9z"/>
		<path id="XMLID_277_" class="st33" d="M32,22.3c-0.1,0-0.3,0-0.4,0.1l-1,0.8c-0.2,0.1-0.3,0.5-0.2,0.7l1.4,4
			c0.1,0.1,0.2,0.2,0.2,0.2V22.3z"/>
	</g>
	<line id="XMLID_269_" class="st7" x1="28.9" y1="32.8" x2="28.9" y2="35.6"/>
	<line id="XMLID_309_" class="st7" x1="32.2" y1="32.8" x2="32.2" y2="35.6"/>
	<line id="XMLID_311_" class="st7" x1="35.1" y1="32.8" x2="35.1" y2="35.6"/>
	<line id="XMLID_313_" class="st7" x1="30.5" y1="37.3" x2="30.5" y2="40.2"/>
	<line id="XMLID_312_" class="st7" x1="34.1" y1="37.3" x2="34.1" y2="40.2"/>
	<rect id="XMLID_318_" x="26.1" y="10.1" class="st34" width="11.7" height="5.5"/>
	<rect id="XMLID_279_" x="26.1" y="10.1" class="st18" width="5.8" height="5.5"/>
	<line id="XMLID_322_" class="st7" x1="20.4" y1="10.1" x2="44.5" y2="10.1"/>
	<line id="XMLID_305_" class="st7" x1="41.5" y1="20.8" x2="41.5" y2="10.2"/>
	<rect id="XMLID_320_" x="26.1" y="10.1" class="st7" width="11.7" height="5.5"/>
	<line id="XMLID_321_" class="st7" x1="36.8" y1="44.2" x2="36.8" y2="45.6"/>
	<line id="XMLID_276_" class="st7" x1="34.9" y1="44.2" x2="34.9" y2="46.3"/>
	<line id="XMLID_280_" class="st7" x1="33" y1="44.2" x2="33" y2="45.6"/>
	<line id="XMLID_283_" class="st7" x1="29.8" y1="44.2" x2="29.8" y2="45.6"/>
	<line id="XMLID_282_" class="st7" x1="27.9" y1="44.2" x2="27.9" y2="46.3"/>
	<line id="XMLID_281_" class="st7" x1="26" y1="44.2" x2="26" y2="45.6"/>
	<path id="XMLID_285_" class="st7" d="M42.1,27.8c-2.8,0-5,2.3-5,5v9.7"/>
	<path id="XMLID_288_" class="st7" d="M22,27.8c2.8,0,5,2.3,5,5v9.7"/>
</g>
<g id="XMLID_319_" class="st0">
	<line id="XMLID_294_" class="st7" x1="32.1" y1="45" x2="32.1" y2="36.4"/>
	<path id="XMLID_289_" class="st7" d="M22.4,33c0,0.5,0.2,0.9,0.5,1.3c0.3,0.3,0.8,0.5,1.3,0.5c0.5,0,0.9-0.2,1.3-0.5
		C25.8,34,26,33.5,26,33s-0.2-0.9-0.5-1.3c-0.3-0.3-1.3-0.5-1.3-0.5c-7.6-1.8-6.6-7.7-6.6-7.7h5"/>
	<path id="XMLID_292_" class="st7" d="M41.6,33c0,0.5-0.2,0.9-0.5,1.3c-0.3,0.3-0.8,0.5-1.3,0.5c-0.5,0-0.9-0.2-1.3-0.5
		C38.2,34,38,33.5,38,33s0.2-0.9,0.5-1.3c0.3-0.3,1.3-0.5,1.3-0.5c7.6-1.8,6.6-7.7,6.6-7.7h-5"/>
	<path id="XMLID_291_" class="st6" d="M22.1,21H42c0,11.9-9.9,19.3-9.9,19.3S22.1,32.8,22.1,21z"/>
	<path id="XMLID_303_" class="st7" d="M39.7,24.2c-0.7,3.7-2.4,6.6-4.2,8.6"/>
	<path id="XMLID_290_" class="st7" d="M28.2,46L28.2,46c0-0.5,0.4-1,1-1H35c0.5,0,1,0.4,1,1l0,0"/>
	<rect id="XMLID_296_" x="25.7" y="45.8" class="st14" width="12.7" height="6.4"/>
	<rect id="XMLID_298_" x="24.3" y="51.2" class="st14" width="15.5" height="1.5"/>
	<rect id="XMLID_302_" x="24.3" y="51.2" class="st7" width="15.5" height="1.5"/>
	<rect id="XMLID_297_" x="28.6" y="46.9" class="st12" width="6.8" height="3.1"/>
	<line id="XMLID_304_" class="st7" x1="31" y1="41.4" x2="33.1" y2="41.4"/>
	<line id="XMLID_293_" class="st7" x1="30.5" y1="42.6" x2="33.7" y2="42.6"/>
	<line id="XMLID_310_" class="st7" x1="22.1" y1="11.8" x2="30.4" y2="11.8"/>
	<line id="XMLID_315_" class="st7" x1="22.1" y1="14.7" x2="26.9" y2="14.7"/>
	<line id="XMLID_317_" class="st7" x1="22.1" y1="17.5" x2="28.9" y2="17.5"/>
	<line id="XMLID_325_" class="st7" x1="41.9" y1="11.8" x2="33.6" y2="11.8"/>
	<line id="XMLID_324_" class="st7" x1="41.9" y1="14.7" x2="37.2" y2="14.7"/>
	<line id="XMLID_323_" class="st7" x1="41.9" y1="17.5" x2="35.1" y2="17.5"/>
	<line id="XMLID_306_" class="st7" x1="30.4" y1="48.5" x2="33.6" y2="48.5"/>
	<path id="XMLID_308_" class="st31" d="M32.5,11.8l0.2,0.7c0.2,0.7,1,1.3,1.8,1.3h0.7c0.8,0,0.9,0.4,0.3,0.8l-0.6,0.4
		c-0.6,0.4-0.9,1.4-0.7,2.1l0.2,0.7c0.2,0.7-0.1,1-0.7,0.5L33.2,18c-0.6-0.4-1.6-0.4-2.2,0l-0.6,0.4c-0.6,0.4-0.9,0.2-0.7-0.5
		l0.2-0.7c0.2-0.7-0.1-1.7-0.7-2.1l-0.6-0.4c-0.6-0.4-0.5-0.8,0.3-0.8h0.7c0.8,0,1.6-0.6,1.8-1.3l0.2-0.7C31.9,11,32.3,11,32.5,11.8
		z"/>
	<path id="XMLID_307_" class="st7" d="M32.5,11.8l0.2,0.7c0.2,0.7,1,1.3,1.8,1.3h0.7c0.8,0,0.9,0.4,0.3,0.8l-0.6,0.4
		c-0.6,0.4-0.9,1.4-0.7,2.1l0.2,0.7c0.2,0.7-0.1,1-0.7,0.5L33.2,18c-0.6-0.4-1.6-0.4-2.2,0l-0.6,0.4c-0.6,0.4-0.9,0.2-0.7-0.5
		l0.2-0.7c0.2-0.7-0.1-1.7-0.7-2.1l-0.6-0.4c-0.6-0.4-0.5-0.8,0.3-0.8h0.7c0.8,0,1.6-0.6,1.8-1.3l0.2-0.7C31.9,11,32.3,11,32.5,11.8
		z"/>
	<path id="XMLID_328_" class="st11" d="M22.1,21c0,11.5,9.3,18.8,9.9,19.3V21H22.1z"/>
</g>
<g id="XMLID_482_" class="st0">
	<g id="XMLID_338_" class="st2">
		<rect id="XMLID_327_" x="12" y="43.5" class="st27" width="40.1" height="8.3"/>
		<rect id="XMLID_329_" x="12" y="43.5" class="st33" width="40.1" height="3.7"/>
		<line id="XMLID_331_" class="st3" x1="18" y1="43.5" x2="18" y2="46.1"/>
		<line id="XMLID_326_" class="st3" x1="12.5" y1="43.5" x2="12.5" y2="46.1"/>
		<line id="XMLID_330_" class="st3" x1="23.6" y1="43.5" x2="23.6" y2="46.1"/>
		<line id="XMLID_332_" class="st3" x1="29.2" y1="43.5" x2="29.2" y2="46.1"/>
		<line id="XMLID_333_" class="st3" x1="34.8" y1="43.5" x2="34.8" y2="46.1"/>
		<line id="XMLID_334_" class="st3" x1="46" y1="43.5" x2="46" y2="46.1"/>
		<line id="XMLID_335_" class="st3" x1="40.4" y1="43.5" x2="40.4" y2="46.1"/>
		<line id="XMLID_337_" class="st3" x1="51.5" y1="43.5" x2="51.5" y2="46.1"/>
	</g>
	<g id="XMLID_347_" class="st2">
		<path id="XMLID_346_" class="st29" d="M16.7,49.4h31.9v3.4H16.7l-4.2-1.6c-0.1,0-0.1-0.1,0-0.2L16.7,49.4z"/>
		<rect id="XMLID_345_" x="16.7" y="49.4" class="st19" width="31.9" height="3.4"/>
		<rect id="XMLID_344_" x="16.7" y="51.1" class="st26" width="31.9" height="1.7"/>
		<rect id="XMLID_343_" x="44.6" y="49.3" class="st29" width="4" height="3.6"/>
		<path id="XMLID_342_" class="st3" d="M16.7,49.4h31.9v3.4H16.7l-4.2-1.6c-0.1,0-0.1-0.1,0-0.2L16.7,49.4z"/>
		<line id="XMLID_341_" class="st3" x1="44.6" y1="52.8" x2="44.6" y2="49.8"/>
		<line id="XMLID_340_" class="st3" x1="16.7" y1="52.6" x2="16.7" y2="49.6"/>
	</g>
	<g id="XMLID_348_" class="st2">
		<line id="XMLID_360_" class="st3" x1="31.8" y1="15.5" x2="31.8" y2="20.5"/>
		<path id="XMLID_359_" class="st24" d="M24.5,42.8l8-20.9c0.1-0.4-0.1-0.7-0.5-0.7h-1.8c-0.4,0-0.8,0.3-0.9,0.7L24.5,42.8
			C24.3,43.2,24.4,43.2,24.5,42.8z"/>
		<path id="XMLID_357_" class="st24" d="M39.6,42.8l-8-20.9c-0.1-0.4,0.1-0.7,0.5-0.7h1.8c0.4,0,0.8,0.3,0.9,0.7L39.6,42.8
			C39.8,43.2,39.7,43.2,39.6,42.8z"/>
		<circle id="XMLID_355_" class="st19" cx="31.8" cy="20.7" r="3.1"/>
		<circle id="XMLID_354_" class="st3" cx="31.8" cy="20.7" r="3.1"/>
		<circle id="XMLID_353_" class="st35" cx="31.8" cy="20.7" r="1.3"/>
		<rect id="XMLID_352_" x="30.8" y="11.1" class="st20" width="2" height="5.4"/>
		<rect id="XMLID_351_" x="30.8" y="11.1" class="st24" width="1.1" height="5.4"/>
		<path id="XMLID_361_" class="st3" d="M38.9,30.4c-1.7,1.7-4.2,2.8-6.8,2.8c-2.7,0-5.1-1.1-6.8-2.8"/>
	</g>
	<path id="XMLID_350_" class="st1" d="M45.6,36.4c-3.3,3.2-8.2,5.3-13.5,5.3c-5.6,0-10.7-2.2-14-5.7"/>
	<circle id="XMLID_349_" class="st7" cx="19.1" cy="24.4" r="1.2"/>
	<circle id="XMLID_362_" class="st7" cx="45.6" cy="29.7" r="1.2"/>
</g>
<g id="XMLID_859_" class="st0">
	<g id="XMLID_858_" class="st2">
		<circle id="XMLID_868_" class="st36" cx="32" cy="32" r="13"/>
		<path id="XMLID_867_" class="st36" d="M36.6,19.8c2,3.2,3.2,7.5,3.2,12.2c0,4.7-1.2,9-3.2,12.2"/>
		<path id="XMLID_866_" class="st36" d="M27.8,19.8c-2,3.2-3.2,7.5-3.2,12.2c0,4.7,1.2,9,3.2,12.2"/>
		<line id="XMLID_865_" class="st36" x1="32" y1="19" x2="32" y2="45"/>
		<line id="XMLID_864_" class="st36" x1="19" y1="32" x2="45" y2="32"/>
		<line id="XMLID_863_" class="st36" x1="21" y1="25.8" x2="43.5" y2="25.8"/>
		<line id="XMLID_862_" class="st36" x1="20.6" y1="38.2" x2="43.3" y2="38.2"/>
	</g>
	<g id="XMLID_880_" class="st2">
		
			<rect id="XMLID_890_" x="12.7" y="28" transform="matrix(0.7071 0.7071 -0.7071 0.7071 32 -13.2548)" class="st27" width="38.7" height="8"/>
		
			<rect id="XMLID_889_" x="14.2" y="28.6" transform="matrix(0.7071 0.7071 -0.7071 0.7071 31.3471 -14.831)" class="st33" width="38.7" height="3.6"/>
		<line id="XMLID_888_" class="st3" x1="25.3" y1="19.6" x2="23.6" y2="21.4"/>
		<line id="XMLID_887_" class="st3" x1="21.5" y1="15.8" x2="19.8" y2="17.6"/>
		<line id="XMLID_886_" class="st3" x1="29.1" y1="23.4" x2="27.4" y2="25.2"/>
		<line id="XMLID_885_" class="st3" x1="32.9" y1="27.3" x2="31.2" y2="29"/>
		<line id="XMLID_884_" class="st3" x1="36.7" y1="31.1" x2="35" y2="32.8"/>
		<line id="XMLID_883_" class="st3" x1="44.4" y1="38.7" x2="42.6" y2="40.4"/>
		<line id="XMLID_882_" class="st3" x1="40.6" y1="34.9" x2="38.8" y2="36.6"/>
		<line id="XMLID_881_" class="st3" x1="48.2" y1="42.5" x2="46.4" y2="44.2"/>
	</g>
	<g id="XMLID_872_" class="st2">
		<path id="XMLID_879_" class="st29" d="M19.1,42.3l25.1-25.1l2.7,2.7L21.7,44.9L17.1,47c-0.1,0-0.2-0.1-0.1-0.1L19.1,42.3z"/>
		
			<rect id="XMLID_878_" x="15.2" y="29.2" transform="matrix(-0.7071 0.7071 -0.7071 -0.7071 78.1965 29.7267)" class="st19" width="35.5" height="3.8"/>
		
			<rect id="XMLID_877_" x="15.9" y="30.8" transform="matrix(-0.7071 0.7071 -0.7071 -0.7071 79.8066 30.3934)" class="st26" width="35.5" height="1.9"/>
		
			<rect id="XMLID_876_" x="41.7" y="18.1" transform="matrix(-0.7071 0.7071 -0.7071 -0.7071 89.1933 3.1794)" class="st29" width="4.4" height="4"/>
		<path id="XMLID_875_" class="st3" d="M19.1,42.3l25.1-25.1l2.7,2.7L21.7,44.9L17.1,47c-0.1,0-0.2-0.1-0.1-0.1L19.1,42.3z"/>
		<line id="XMLID_874_" class="st3" x1="43.7" y1="23" x2="41.4" y2="20.6"/>
		<line id="XMLID_873_" class="st3" x1="21.6" y1="44.8" x2="19.2" y2="42.4"/>
	</g>
</g>
<g id="XMLID_730_" class="st0">
	<g id="XMLID_120_" class="st2">
		<rect id="XMLID_135_" x="26.3" y="41.5" class="st25" width="11.4" height="6.7"/>
		<rect id="XMLID_134_" x="26.3" y="41.5" class="st24" width="11.4" height="3.4"/>
		<rect id="XMLID_133_" x="26.3" y="41.5" class="st3" width="11.4" height="6.7"/>
		<rect id="XMLID_132_" x="13.1" y="15.6" class="st37" width="37.7" height="22.4"/>
		<rect id="XMLID_131_" x="15.2" y="17.8" class="st29" width="33.7" height="17.7"/>
		<rect id="XMLID_367_" x="17.6" y="19.7" class="st19" width="14.4" height="7.6"/>
		<rect id="XMLID_130_" x="13.1" y="37.3" class="st29" width="37.7" height="5.1"/>
		<rect id="XMLID_129_" x="13.1" y="15.6" class="st3" width="37.7" height="26.7"/>
		<line id="XMLID_128_" class="st3" x1="13.1" y1="37.4" x2="50.9" y2="37.4"/>
		<line id="XMLID_127_" class="st3" x1="24.1" y1="48.4" x2="40" y2="48.4"/>
		<polygon id="XMLID_390_" class="st29" points="25.8,23.5 23.7,24.7 23.7,22.3 		"/>
	</g>
	<g id="XMLID_366_" class="st2">
		<g id="XMLID_386_">
			<line id="XMLID_363_" class="st3" x1="40.5" y1="22.3" x2="40.5" y2="24.2"/>
			<line id="XMLID_358_" class="st3" x1="42.6" y1="22.9" x2="41.7" y2="24.5"/>
			<line id="XMLID_364_" class="st3" x1="44.1" y1="24.4" x2="42.5" y2="25.3"/>
			<line id="XMLID_365_" class="st3" x1="44.7" y1="26.5" x2="42.8" y2="26.5"/>
			<line id="XMLID_368_" class="st3" x1="40.5" y1="30.6" x2="40.5" y2="28.8"/>
			<line id="XMLID_369_" class="st3" x1="38.4" y1="30" x2="39.4" y2="28.4"/>
			<line id="XMLID_370_" class="st3" x1="36.9" y1="28.5" x2="38.5" y2="27.6"/>
			<line id="XMLID_371_" class="st3" x1="36.4" y1="26.4" x2="38.2" y2="26.4"/>
			<line id="XMLID_372_" class="st3" x1="37" y1="24.3" x2="38.6" y2="25.3"/>
			<line id="XMLID_373_" class="st3" x1="38.5" y1="22.8" x2="39.4" y2="24.4"/>
		</g>
		<polygon id="XMLID_387_" class="st35" points="42.9,28.3 44.5,29.9 44,30.4 42.3,28.8 42,30 40.5,26.5 44.1,27.9 		"/>
	</g>
	<line id="XMLID_389_" class="st7" x1="17.6" y1="29" x2="30.9" y2="29"/>
	<line id="XMLID_388_" class="st7" x1="17.4" y1="31.6" x2="28.6" y2="31.6"/>
	<line id="XMLID_392_" class="st7" x1="17.3" y1="34.3" x2="22.7" y2="34.3"/>
</g>
<g id="XMLID_729_" class="st0">
	<g id="XMLID_904_" class="st2">
		<path id="XMLID_912_" class="st38" d="M16.3,24.4c0-7.6,6.1-13.7,13.7-13.7c7.6,0,13.7,6.1,13.7,13.7l4,10l-4.1,0.1l0.1,4.1
			c0,6.7,0,6.2-9.5,6.2v8.5H22.4V39.7C21.7,35.2,16.3,32,16.3,24.4z"/>
	</g>
	<circle id="XMLID_393_" class="st39" cx="29.4" cy="23.2" r="10.2"/>
	<circle id="XMLID_394_" class="st17" cx="29.4" cy="23.2" r="3.8"/>
	<line id="XMLID_397_" class="st7" x1="38.9" y1="38.7" x2="41.7" y2="38.7"/>
	<circle id="XMLID_396_" class="st12" cx="29.4" cy="23.2" r="1.5"/>
	<g id="XMLID_424_" class="st2">
		<line id="XMLID_456_" class="st3" x1="29.4" y1="31.5" x2="29.4" y2="35.1"/>
		<path id="XMLID_453_" class="st20" d="M29.4,14.5c-4.8,0-8.7,3.9-8.7,8.7s3.9,8.7,8.7,8.7c4.8,0,8.7-3.9,8.7-8.7
			S34.2,14.5,29.4,14.5z M29.4,31c-4.3,0-7.8-3.5-7.8-7.8c0-4.3,3.5-7.8,7.8-7.8c4.3,0,7.8,3.5,7.8,7.8C37.2,27.5,33.7,31,29.4,31z"
			/>
		<path id="XMLID_452_" class="st3" d="M29.4,17.3c3.3,0,6,2.7,6,6"/>
		<path id="XMLID_451_" class="st21" d="M27.7,34.1v13.7c0,0.9,0.8,1.7,1.7,1.7V34.1H27.7z"/>
		<path id="XMLID_450_" class="st19" d="M29.4,34.1v15.4c0.9,0,1.7-0.8,1.7-1.7V34.1H29.4z"/>
		<line id="XMLID_449_" class="st3" x1="27.6" y1="36.6" x2="31.2" y2="36.6"/>
		<line id="XMLID_448_" class="st3" x1="27.6" y1="38.1" x2="31.2" y2="38.1"/>
	</g>
</g>
<g id="XMLID_728_" class="st0">
	<g id="XMLID_395_" class="st2">
		<path id="XMLID_237_" class="st29" d="M46,28.6H13.3v-3.5H46l4.3,1.6c0.1,0,0.1,0.2,0,0.2L46,28.6z"/>
		<rect id="XMLID_236_" x="13.3" y="25.1" class="st27" width="32.6" height="3.5"/>
		<rect id="XMLID_235_" x="13.3" y="25.1" class="st38" width="32.6" height="1.7"/>
		<rect id="XMLID_234_" x="13.3" y="25" class="st29" width="4" height="3.7"/>
		<path id="XMLID_233_" class="st3" d="M46,28.6H13.3v-3.5H46l4.3,1.6c0.1,0,0.1,0.2,0,0.2L46,28.6z"/>
		<line id="XMLID_232_" class="st3" x1="17.4" y1="25.1" x2="17.4" y2="28.2"/>
		<line id="XMLID_209_" class="st3" x1="46" y1="25.3" x2="46" y2="28.4"/>
	</g>
	<circle id="XMLID_478_" class="st7" cx="22.8" cy="12.9" r="1.2"/>
	<circle id="XMLID_479_" class="st7" cx="51.1" cy="19.1" r="1.2"/>
	<circle id="XMLID_480_" class="st7" cx="16.3" cy="33.2" r="1.2"/>
	<circle id="XMLID_481_" class="st7" cx="45.2" cy="43.4" r="1.2"/>
	<g id="XMLID_499_" class="st2">
		<path id="XMLID_472_" class="st29" d="M36.2,23.5c-0.8,0-1.4,0.6-1.4,1.4v-1.5c0-0.8-0.6-1.4-1.4-1.4c-0.8,0-1.4,0.6-1.4,1.4v-1.5
			c0-0.8-0.6-1.4-1.4-1.4c-0.8,0-1.4,0.6-1.4,1.4v1.5c0-0.8-0.6-1.4-1.4-1.4c-0.8,0-1.4,0.6-1.4,1.4v2.9h-2c-0.5,0-1,0.4-1,1v6.3
			c0,0.5,0.3,1,0.8,1.2l1.2,0.5c0.5,0.2,0.8,0.7,0.8,1.2v2.7h9.4v-3.1c0-0.3,0.1-0.6,0.3-0.8l1.4-1.4c0.3-0.3,0.4-0.6,0.4-1v-8.1
			C37.7,24.1,37,23.5,36.2,23.5z"/>
		<path id="XMLID_460_" class="st3" d="M29.1,26.9v-3.4c0-0.8-0.6-1.4-1.4-1.4l0,0c-0.8,0-1.4,0.6-1.4,1.4V29"/>
		<path id="XMLID_461_" class="st3" d="M31.9,24.4v-2.4c0-0.8-0.6-1.4-1.4-1.4l0,0c-0.8,0-1.4,0.6-1.4,1.4v2.4"/>
		<path id="XMLID_462_" class="st3" d="M34.8,26.9v-3.4c0-0.8-0.6-1.4-1.4-1.4l0,0c-0.8,0-1.4,0.6-1.4,1.4v3.4"/>
		<path id="XMLID_464_" class="st3" d="M34.8,26.3v-1.3c0-0.8,0.6-1.4,1.4-1.4l0,0c0.8,0,1.4,0.6,1.4,1.4V33c0,0.4-0.1,0.7-0.4,1
			l-1.4,1.4c-0.2,0.2-0.3,0.5-0.3,0.8v3.1"/>
		<path id="XMLID_463_" class="st3" d="M26.2,26.4h-2c-0.5,0-1,0.4-1,1v6.3c0,0.5,0.3,1,0.8,1.2l1.2,0.5c0.5,0.2,0.8,0.7,0.8,1.2
			v2.7"/>
		<rect id="XMLID_459_" x="24.7" y="38.1" class="st21" width="12.1" height="14.2"/>
		<rect id="XMLID_470_" x="24.7" y="38.1" class="st19" width="3.6" height="14.2"/>
	</g>
	<line id="XMLID_473_" class="st7" x1="16.6" y1="19.1" x2="22.4" y2="19.1"/>
	<line id="XMLID_474_" class="st7" x1="40.5" y1="33.2" x2="49.9" y2="33.2"/>
	<line id="XMLID_476_" class="st7" x1="21" y1="37.5" x2="11.7" y2="37.5"/>
	<line id="XMLID_477_" class="st7" x1="42.9" y1="12.9" x2="27.5" y2="12.9"/>
	<line id="XMLID_471_" class="st7" x1="27.1" y1="19.1" x2="24" y2="19.1"/>
	<line id="XMLID_475_" class="st7" x1="47.4" y1="19.1" x2="36" y2="19.1"/>
</g>
<g id="XMLID_724_" class="st0">
	<path id="XMLID_483_" class="st40" d="M46.9,51.5H17.1c-0.6,0-1-0.5-1-1v-37c0-0.5,0.4-1,1-1h29.7c0.5,0,1,0.5,1,1v37
		C47.9,51.1,47.4,51.5,46.9,51.5z"/>
	<path id="XMLID_497_" class="st7" d="M46.9,51.5H17.1c-0.6,0-1-0.5-1-1v-37c0-0.5,0.4-1,1-1h29.7c0.5,0,1,0.5,1,1v37
		C47.9,51.1,47.4,51.5,46.9,51.5z"/>
	<rect id="XMLID_484_" x="20.2" y="16.1" class="st12" width="23.6" height="30.7"/>
	<circle id="XMLID_485_" class="st41" cx="32" cy="49.1" r="1.4"/>
	<line id="XMLID_487_" class="st7" x1="33.2" y1="19.8" x2="40.5" y2="19.8"/>
	<line id="XMLID_486_" class="st7" x1="33.2" y1="23.9" x2="40.4" y2="23.9"/>
	<line id="XMLID_488_" class="st7" x1="23.4" y1="27.9" x2="40.4" y2="27.9"/>
	<line id="XMLID_489_" class="st7" x1="23.4" y1="32" x2="40.3" y2="32"/>
	<line id="XMLID_490_" class="st7" x1="23.4" y1="36.1" x2="40.3" y2="36.1"/>
	<line id="XMLID_491_" class="st7" x1="23.3" y1="44.2" x2="38.2" y2="44.2"/>
	<line id="XMLID_498_" class="st7" x1="23.3" y1="40.1" x2="38.2" y2="40.1"/>
	<g id="XMLID_493_" class="st2">
		<path id="XMLID_494_" class="st19" d="M29.6,25.7L29,24.4h-2.6l-0.6,1.3h-1.5l2.7-6.2h1.3l2.7,6.2H29.6z M27.7,21.3L27,23.1h1.6
			L27.7,21.3z"/>
	</g>
	<polygon id="XMLID_492_" class="st6" points="40.8,49.5 38.1,48.1 35.4,49.5 35.4,16 40.8,16 	"/>
</g>
<g id="XMLID_718_" class="st0">
	<g id="XMLID_707_" class="st2">
		<polygon id="XMLID_727_" class="st42" points="41.3,40.8 20.3,40.8 20.3,12.1 21.5,10.3 41.3,10.3 		"/>
		<polygon id="XMLID_726_" class="st29" points="39.8,10.4 21.5,10.4 20.3,11.3 20.3,14.7 39.8,14.7 		"/>
		<polygon id="XMLID_725_" class="st19" points="40.5,40.8 20.3,40.8 20.3,13.3 21.5,14.6 40.5,14.6 		"/>
		<path id="XMLID_717_" class="st3" d="M41.6,10.4H22.3c-1.1,0-2,0.6-2,1.3v1.6c0,0.7,0.9,1.3,2,1.3h18.5"/>
		<polyline id="XMLID_716_" class="st3" points="20.3,13.3 20.3,40.8 26.9,40.8 		"/>
		<line id="XMLID_709_" class="st3" x1="31.6" y1="11.7" x2="38" y2="11.7"/>
		<line id="XMLID_708_" class="st3" x1="26.9" y1="13.3" x2="38" y2="13.3"/>
	</g>
	<g id="XMLID_719_" class="st2">
		<path id="XMLID_723_" class="st29" d="M33,36.8l4.1-4.3c1-1.3,3,0,1.9,1.2l-3.2,4.5l1.6,0l3.7-4c0,0,0.4-2.5,0.5-2.9l0.1-3.2
			c-0.2-0.5,0-1.2,0.5-1.4c0.5-0.2,1.2,0,1.4,0.5l0,3.6c0.1,0.3,0.1,4.6,0.1,4.6l-4.5,9.3h-6.8l0-6.7C32.4,37.7,32.7,37.1,33,36.8z"
			/>
		<path id="XMLID_722_" class="st43" d="M33,36.8l4.1-4.3c1-1.3,3,0,1.9,1.2l-3.2,4.5l1.6,0l3.9-4.2c0,0,0.2-2.5,0.3-2.9L41.5,28
			c0.1-0.6,0-1.2,0.5-1.4c0.5-0.2,1.2,0,1.4,0.5l0.1,3.8c0.1,0.3,0.1,4.6,0.1,4.6l-4.5,9.3h-6.8l0-6.7C32.4,37.7,32.7,37.1,33,36.8z
			"/>
		<rect id="XMLID_721_" x="31" y="44.2" class="st27" width="9.8" height="9.6"/>
		<rect id="XMLID_720_" x="31.4" y="44.2" class="st38" width="3.7" height="9.6"/>
	</g>
	<rect id="XMLID_712_" x="22.7" y="18.1" class="st12" width="15.9" height="9"/>
	<line id="XMLID_714_" class="st7" x1="24.2" y1="21" x2="37" y2="21"/>
	<line id="XMLID_713_" class="st7" x1="26.8" y1="23.8" x2="34.2" y2="23.8"/>
</g>
<g id="XMLID_789_" class="st0">
	<path id="XMLID_504_" class="st12" d="M31.7,53.3L31.7,53.3c-1.5,0-2.6-1.2-2.6-2.6v-4.6c0-1.5,1.2-2.6,2.6-2.6l0,0
		c1.5,0,2.6,1.2,2.6,2.6v4.6C34.4,52.1,33.2,53.3,31.7,53.3z"/>
	<path id="XMLID_506_" class="st7" d="M31.7,53.3L31.7,53.3c-1.5,0-2.6-1.2-2.6-2.6v-4.6c0-1.5,1.2-2.6,2.6-2.6l0,0
		c1.5,0,2.6,1.2,2.6,2.6v4.6C34.4,52.1,33.2,53.3,31.7,53.3z"/>
	<g id="XMLID_702_" class="st2">
		<g id="XMLID_742_">
			<rect id="XMLID_755_" x="42.4" y="33.7" class="st35" width="0.3" height="0.8"/>
		</g>
		<g id="XMLID_741_">
			
				<rect id="XMLID_754_" x="43.1" y="33.9" transform="matrix(0.865 0.5018 -0.5018 0.865 23.0516 -17.0868)" class="st35" width="0.3" height="0.8"/>
		</g>
		<g id="XMLID_740_">
			
				<rect id="XMLID_753_" x="43.6" y="34.4" transform="matrix(0.4974 0.8675 -0.8675 0.4974 52.2256 -20.5001)" class="st35" width="0.3" height="0.8"/>
		</g>
		<g id="XMLID_739_">
			<rect id="XMLID_752_" x="43.6" y="35.4" class="st35" width="0.8" height="0.3"/>
		</g>
		<g id="XMLID_738_">
			
				<rect id="XMLID_751_" x="43.4" y="36.1" transform="matrix(0.863 0.5053 -0.5053 0.863 24.3292 -17.1599)" class="st35" width="0.8" height="0.3"/>
		</g>
		<g id="XMLID_737_">
			
				<rect id="XMLID_750_" x="42.9" y="36.6" transform="matrix(0.4936 0.8697 -0.8697 0.4936 53.9113 -18.9926)" class="st35" width="0.8" height="0.3"/>
		</g>
		<g id="XMLID_736_">
			<rect id="XMLID_749_" x="42.4" y="36.6" class="st35" width="0.3" height="0.8"/>
		</g>
		<g id="XMLID_735_">
			
				<rect id="XMLID_748_" x="41.7" y="36.4" transform="matrix(0.8604 0.5097 -0.5097 0.8604 24.5863 -16.1762)" class="st35" width="0.3" height="0.8"/>
		</g>
		<g id="XMLID_734_">
			
				<rect id="XMLID_747_" x="41.1" y="35.8" transform="matrix(0.4899 0.8718 -0.8718 0.4899 52.6629 -17.5072)" class="st35" width="0.3" height="0.8"/>
		</g>
		<g id="XMLID_733_">
			
				<rect id="XMLID_746_" x="40.7" y="35.4" transform="matrix(0.9999 1.321097e-002 -1.321097e-002 0.9999 0.4728 -0.54)" class="st35" width="0.8" height="0.3"/>
		</g>
		<g id="XMLID_732_">
			
				<rect id="XMLID_745_" x="40.9" y="34.6" transform="matrix(0.8584 0.513 -0.513 0.8584 23.7029 -16.2649)" class="st35" width="0.8" height="0.3"/>
		</g>
		<g id="XMLID_731_">
			
				<rect id="XMLID_744_" x="41.4" y="34.1" transform="matrix(0.4857 0.8741 -0.8741 0.4857 51.485 -18.9531)" class="st35" width="0.8" height="0.3"/>
		</g>
	</g>
	<g id="XMLID_743_" class="st2">
		<g id="XMLID_778_">
			<rect id="XMLID_779_" x="15.7" y="16" class="st35" width="0.4" height="0.9"/>
		</g>
		<g id="XMLID_776_">
			
				<rect id="XMLID_777_" x="16.5" y="16.2" transform="matrix(0.865 0.5018 -0.5018 0.865 10.626 -6.115)" class="st35" width="0.4" height="0.9"/>
		</g>
		<g id="XMLID_774_">
			
				<rect id="XMLID_775_" x="17.1" y="16.8" transform="matrix(0.4972 0.8677 -0.8677 0.4972 23.6968 -6.2973)" class="st35" width="0.4" height="0.9"/>
		</g>
		<g id="XMLID_772_">
			<rect id="XMLID_773_" x="17" y="17.9" class="st35" width="0.9" height="0.4"/>
		</g>
		<g id="XMLID_770_">
			
				<rect id="XMLID_771_" x="16.8" y="18.8" transform="matrix(0.863 0.5053 -0.5053 0.863 11.9439 -6.1308)" class="st35" width="0.9" height="0.4"/>
		</g>
		<g id="XMLID_768_">
			
				<rect id="XMLID_769_" x="16.2" y="19.4" transform="matrix(0.4936 0.8697 -0.8697 0.4936 25.4445 -4.5894)" class="st35" width="0.9" height="0.4"/>
		</g>
		<g id="XMLID_766_">
			<rect id="XMLID_767_" x="15.7" y="19.3" class="st35" width="0.4" height="0.9"/>
		</g>
		<g id="XMLID_764_">
			
				<rect id="XMLID_765_" x="14.8" y="19.1" transform="matrix(0.8605 0.5095 -0.5095 0.8605 12.0509 -4.9193)" class="st35" width="0.4" height="0.9"/>
		</g>
		<g id="XMLID_762_">
			
				<rect id="XMLID_763_" x="14.2" y="18.5" transform="matrix(0.4895 0.872 -0.872 0.4895 23.8587 -2.9001)" class="st35" width="0.4" height="0.9"/>
		</g>
		<g id="XMLID_760_">
			
				<rect id="XMLID_761_" x="13.7" y="17.9" transform="matrix(0.9999 1.334910e-002 -1.334910e-002 0.9999 0.2428 -0.1879)" class="st35" width="0.9" height="0.4"/>
		</g>
		<g id="XMLID_758_">
			
				<rect id="XMLID_759_" x="14" y="17.1" transform="matrix(0.8584 0.513 -0.513 0.8584 10.903 -4.9562)" class="st35" width="0.9" height="0.4"/>
		</g>
		<g id="XMLID_756_">
			
				<rect id="XMLID_757_" x="14.6" y="16.5" transform="matrix(0.4856 0.8742 -0.8742 0.4856 22.3146 -4.5749)" class="st35" width="0.9" height="0.4"/>
		</g>
	</g>
	<path id="XMLID_502_" class="st7" d="M34.3,22.2h13.6c1.1,0,2,0.9,2,2v2c0,1.1-0.9,2-2,2H37.2"/>
	<path id="XMLID_503_" class="st7" d="M31.9,28.2H18.3c-1.1,0-2,0.9-2,2v2c0,1.1,0.9,2,2,2l13.4-0.1l0,9.3"/>
	<g id="XMLID_501_" class="st2">
		<polygon id="XMLID_705_" class="st20" points="40.4,14.8 40.4,14.8 40.4,14.8 		"/>
		<path id="XMLID_704_" class="st20" d="M40.4,14.7C40.4,14.7,40.4,14.7,40.4,14.7C40.4,14.7,40.4,14.7,40.4,14.7z"/>
		<circle id="XMLID_703_" class="st23" cx="31.5" cy="21.6" r="10.9"/>
		<path id="XMLID_507_" class="st19" d="M41.9,18.3C42,18.2,41.9,18.3,41.9,18.3L41.9,18.3z M42,18.5C41.9,18.7,42,18.5,42,18.5
			L42,18.5z M37.5,17.3c0,0-2-1.9-0.5-2c0,0,0-0.1,0-0.1c0,0,0,0,0,0.1c0-0.1-0.3,0-0.5,0c-0.1,0,0-0.1,0-0.1c0,0,0-0.1,0-0.1
			c0.1,0,0.1,0,0-0.1c0,0,0.3-0.2,0.4-0.1c0,0-0.1-0.1,0-0.1c0-0.1-1-1.1-1.8-1.7c0,0,0,0-0.1,0c-0.2-0.1-0.4-0.2-0.5-0.3
			c0.1,0,0-0.1,0-0.1c1.1,0.3,1.8-1.1,2.7-0.7c0,0,0.1,0,0.1,0c0,0,0,0,0,0c0,0,0,0,0,0c0,0,0,0,0.1,0.1c-0.1-0.2,3,2,2.7,2.5
			c0,0,0,0,0,0c0,0,0,0-0.1,0.1c0.1,0,0.1,0.1,0,0.1c0.2,0.1,0.2,0,0.1,0c0.4,0.1,0.3,0.4,0.3,0.5c0-0.1-1.2,0.1-0.1,0.2
			C38.4,15.5,38.1,16.7,37.5,17.3z M36.8,14.9C36.9,14.9,36.9,14.8,36.8,14.9L36.8,14.9z M36.8,15C36.8,15,37,15,36.8,15L36.8,15z
			 M36.6,15.9C36.6,15.9,36.5,15.9,36.6,15.9L36.6,15.9z M36.7,15.6C36.7,15.6,36.7,15.5,36.7,15.6L36.7,15.6z M36.8,15.5
			C36.6,15.5,36.9,15.5,36.8,15.5L36.8,15.5z M36.8,15.8C36.8,15.8,36.9,15.9,36.8,15.8L36.8,15.8z M36.9,15.7
			C37,15.8,36.7,15.5,36.9,15.7L36.9,15.7z M39.9,14.9C39.9,14.9,40,14.9,39.9,14.9L39.9,14.9z M39.7,15.5
			C39.9,15.4,39.6,15.5,39.7,15.5L39.7,15.5z M39.8,15.6C39.9,15.5,39.6,15.5,39.8,15.6L39.8,15.6z M39.9,14.9
			C39.8,15,40.1,15,39.9,14.9L39.9,14.9z M40.4,15.7C40.4,15.7,40.4,15.7,40.4,15.7L40.4,15.7z M40.2,14.9
			C40.1,14.9,40.1,14.9,40.2,14.9C40.1,14.9,40.1,14.9,40.2,14.9z M39.7,15.5C39.7,15.5,39.7,15.5,39.7,15.5L39.7,15.5z M40.2,14.9
			C40.2,14.9,40.2,14.9,40.2,14.9C40.2,14.9,40.1,14.9,40.2,14.9C40.2,14.9,40.2,14.9,40.2,14.9z M36.7,14.9
			C36.9,14.8,36.7,14.8,36.7,14.9L36.7,14.9z M24.9,15.6C24.9,15.6,25,15.6,24.9,15.6C25,15.6,24.9,15.6,24.9,15.6z M22.9,16.2
			C23.1,16.2,22.5,16.1,22.9,16.2L22.9,16.2z M25.1,15.5C25.1,15.6,25.1,15.6,25.1,15.5C25.1,15.5,25.1,15.5,25.1,15.5z M30.7,12.9
			C30.8,13,30.6,12.8,30.7,12.9L30.7,12.9z M30.8,13C30.9,13,30.9,13,30.8,13C30.8,13,30.8,13,30.8,13C30.8,13,30.8,13,30.8,13
			C30.8,13,30.7,13,30.8,13C30.6,13,30.7,13,30.8,13C30.8,13,30.8,13,30.8,13z M30.8,13C30.9,13,30.9,13,30.8,13L30.8,13z
			 M30.8,12.4C30.8,12.4,30.8,12.4,30.8,12.4L30.8,12.4z M30.8,12.4C30.8,12.4,30.9,12.4,30.8,12.4L30.8,12.4z M30.8,12.3
			C30.8,12.3,30.8,12.3,30.8,12.3L30.8,12.3z M30.7,12.2C31.2,12.5,31.3,12.6,30.7,12.2L30.7,12.2z M30.7,12.2
			C30.7,12.3,30.6,12.2,30.7,12.2L30.7,12.2z M34.5,16.8C34.5,16.8,34.6,16.8,34.5,16.8C34.6,16.8,34.5,16.8,34.5,16.8z M30.6,12.7
			C30.6,12.7,30.3,12.7,30.6,12.7C30.6,12.7,30.6,12.7,30.6,12.7z M31.1,12.6c0,0-0.1-0.1-0.1-0.1C30.9,12.6,31,12.6,31.1,12.6z
			 M31.3,12.1C31.6,12.2,31.1,12,31.3,12.1L31.3,12.1z M33.7,13.4C33.7,13.4,33.6,13.4,33.7,13.4C33.6,13.4,33.7,13.4,33.7,13.4z
			 M32.6,21.9C32.6,21.9,32.6,21.9,32.6,21.9C32.6,21.9,32.7,21.9,32.6,21.9z M31.2,12.9C31.3,13,31,12.9,31.2,12.9L31.2,12.9z
			 M31.2,13.1C31.1,13.1,31.2,13.1,31.2,13.1L31.2,13.1z M31.1,12.9C31,13,31.1,12.9,31.1,12.9L31.1,12.9z M30.9,12.9
			C30.5,13.1,32.1,12.6,30.9,12.9L30.9,12.9z M31.2,13C31.2,13,31.2,13,31.2,13C31,12.9,31.3,13,31.2,13z M35.6,12.2
			c-0.1,0-0.2,0-0.3,0C35.7,12.3,35.3,12.2,35.6,12.2z M33.1,11.9C33.1,11.9,33.1,11.9,33.1,11.9C33.1,11.9,33.1,11.9,33.1,11.9z
			 M32.4,11.7C32.4,11.7,32.4,11.7,32.4,11.7C32.4,11.7,32.4,11.7,32.4,11.7z M33.8,12.1C33.8,12.1,33.8,12.1,33.8,12.1
			C33.8,12.1,33.8,12.1,33.8,12.1z M33.8,12.1C33.8,12.1,33.8,12.1,33.8,12.1C33.8,12.1,33.8,12.1,33.8,12.1
			C33.8,12.1,33.8,12.1,33.8,12.1C33.8,12.1,33.8,12.1,33.8,12.1z M31.7,12.1c-0.2-0.4,1.3,0,1.8,0.3c0-0.1-0.3-0.2-0.1-0.2
			c-0.1,0-0.1-0.1,0-0.1c-0.1,0-0.1,0,0.1,0c-0.6,0.1-0.8-0.3-1-0.3c0.1,0,0,0,0,0c0,0,0,0-0.1-0.1c0.2,0.1,3.8-0.4,3.7,0.3
			c0,0,0,0,0,0.1c0,0.2-0.8,0.1-0.9,0.1c0.1,0,0.1,0,0.2,0.1c-0.6,0-0.8,0.4-1.4,0.4c-0.1,0,0.2,0.1,0.1,0c0.4,0.3-0.7,0.9-1.6,0.5
			c0,0,0-0.1,0-0.2c0-0.3,0.5,0,0.6-0.1c-0.1,0-0.1,0-0.1,0c-0.1,0,0,0,0.1,0c-0.1,0-0.3-0.1-0.3-0.2C32.3,12.7,32,12.5,31.7,12.1
			C31.7,12.1,31.7,12.1,31.7,12.1C31.7,12.1,31.7,12.1,31.7,12.1z M34.3,11.7C34.3,11.7,34.2,11.7,34.3,11.7L34.3,11.7z M33.1,11.7
			C33.1,11.7,33.1,11.7,33.1,11.7L33.1,11.7z M33.1,11.9C33.1,11.9,33.1,11.9,33.1,11.9C32.8,11.9,33,12.1,33.1,11.9z M34,12.6
			C33.9,12.6,33.9,12.6,34,12.6L34,12.6z M33.9,12.6C33.9,12.6,33.9,12.6,33.9,12.6L33.9,12.6z M33.8,12.1
			C33.9,12.2,33.8,12.1,33.8,12.1C33.9,12.1,33.9,12.1,33.8,12.1C33.8,12.1,33.8,12.1,33.8,12.1C33.8,12.1,33.8,12.1,33.8,12.1
			C33.8,12.1,33.8,12.1,33.8,12.1c0,0-0.1,0-0.1,0C33.5,12.3,33.7,12.2,33.8,12.1z M33.4,13C33.5,13,33.4,13,33.4,13L33.4,13z
			 M33.1,12.9C33.1,12.9,33.1,12.9,33.1,12.9L33.1,12.9z M33.1,12.7C33.1,12.8,33.1,12.7,33.1,12.7L33.1,12.7z M33,12.5
			C32.9,12.5,33.1,12.5,33,12.5L33,12.5z M33.7,12.2C33.7,12.2,33.7,12.2,33.7,12.2L33.7,12.2z M32.3,12.9
			C32.3,12.9,32.3,12.9,32.3,12.9C32.3,12.9,32.6,12.8,32.3,12.9z M30.9,14.7C31.1,14.7,30.8,14.7,30.9,14.7
			C30.9,14.7,30.9,14.7,30.9,14.7z M32.7,15.5c0,0,0,0.1,0.1,0.1C32.9,15.6,32.7,15.5,32.7,15.5z M29.5,12.4
			C29.6,12.4,29.4,12.4,29.5,12.4L29.5,12.4z M34.3,16.4C34.4,16.4,34.3,16.3,34.3,16.4C34.2,16.3,34.3,16.4,34.3,16.4z M29.7,12.5
			C29.3,12.4,30.4,12.7,29.7,12.5L29.7,12.5z M30.7,14.7C30.7,14.7,30.7,14.6,30.7,14.7C30.7,14.7,30.7,14.7,30.7,14.7z M34.5,13.2
			C34.6,13.2,34.6,13.2,34.5,13.2C34.6,13.2,34.5,13.2,34.5,13.2z M33.4,15c0,0,0.1,0,0.1-0.1c0,0,0.1,0,0,0c0,0,0,0,0,0
			C33.5,14.9,33.5,14.9,33.4,15C33.5,14.9,33.5,14.9,33.4,15C33.5,14.9,33.5,14.9,33.4,15C33.4,15,33.4,15,33.4,15z M33.2,22.4
			C33.2,22.4,33.1,22.4,33.2,22.4C33.1,22.4,33.2,22.4,33.2,22.4z M42.1,18.9C42.1,18.9,42.1,18.9,42.1,18.9
			C42.1,18.9,42.1,18.9,42.1,18.9z M42,18.5C42,18.5,42,18.5,42,18.5L42,18.5z M32.6,19c0,0-0.2,0-0.1,0C32.5,18.9,32.6,19,32.6,19z
			 M31.7,31.7C31.7,31.7,31.7,31.7,31.7,31.7C31.7,31.8,31.7,31.7,31.7,31.7z M31.9,30.6C31.9,30.7,32,30.7,31.9,30.6L31.9,30.6z
			 M31.8,31.9c0,0-0.2-0.1-0.1-0.1C31.7,31.9,31.9,32,31.8,31.9z M33.9,22.9C34.3,22.9,33.9,22.9,33.9,22.9L33.9,22.9z M33.9,22.9
			C33.8,22.9,33.9,22.9,33.9,22.9L33.9,22.9z M32.9,22.5C31.5,21.8,32.2,22.2,32.9,22.5L32.9,22.5z M32.9,22.5
			C32.9,22.5,32.8,22.5,32.9,22.5L32.9,22.5z M32,22C32.3,22,32.1,22,32,22L32,22z M41.3,19.2C42.7,19,41.3,19.2,41.3,19.2
			C41.3,19.2,41.3,19.2,41.3,19.2z M41.9,18.4C42,18.4,41.9,18.4,41.9,18.4C41.9,18.4,41.9,18.3,41.9,18.4z M42.1,19.1
			C42.1,19.5,42.2,19.8,42.1,19.1L42.1,19.1z M40.3,14.9C40.3,15,40.3,14.9,40.3,14.9L40.3,14.9z M42.3,21.6
			c-0.6,0.5,0.2-0.9,0.1-1.8c-0.1,0.1-0.2,0-0.2-0.1c-0.1,0-0.2,0.1-0.2,0.1c0,0.7-0.7,1.8-1.8,3.1c-0.3,0.3-0.2,0.9-0.3,1.3
			C38.8,27.6,43.4,20.6,42.3,21.6z M24.9,15.6C25,15.6,25,15.5,24.9,15.6C25,15.5,24.9,15.6,24.9,15.6z M23.3,21.1
			C23.3,21.1,23.3,21.1,23.3,21.1C23.4,21.2,23.2,21.1,23.3,21.1z M24.4,15.8C24.5,16,24.3,15.6,24.4,15.8L24.4,15.8z M22.9,16.1
			C23.1,16.2,22.5,16.1,22.9,16.1L22.9,16.1z M22.6,16.3C22.6,16.4,22.6,16.5,22.6,16.3L22.6,16.3z M22.6,16.3
			C22.6,16.3,22.6,16.3,22.6,16.3L22.6,16.3z M26.8,17.1C26.8,17.1,26.9,17.1,26.8,17.1L26.8,17.1z M26.8,17.1
			C26.4,16.9,26.6,17,26.8,17.1L26.8,17.1z M30.7,13.1C30.6,13.2,30.6,13.2,30.7,13.1L30.7,13.1z M34.6,16.7
			C34.6,16.7,34.5,16.8,34.6,16.7C34.6,16.8,34.6,16.8,34.6,16.7z M31,12.5c0,0,0,0.1,0.1,0C31.1,12.5,31,12.5,31,12.5z M35,16.6
			C35.1,16.4,34.9,16.9,35,16.6L35,16.6z M33.7,13.3C33.7,13.3,33.6,13.3,33.7,13.3C33.7,13.4,33.7,13.3,33.7,13.3z M31.5,12.4
			C32.1,12.9,31.9,12.7,31.5,12.4L31.5,12.4z M32.4,13C32.4,13,32.4,13,32.4,13C32.4,12.9,32.3,13,32.4,13z M30.9,14.6
			C31,14.5,30.8,14.6,30.9,14.6L30.9,14.6z M31.8,13.1C31.8,13.1,31.8,13.2,31.8,13.1C31.9,13.2,31.8,13.1,31.8,13.1z M30.9,13.6
			c-0.7,0.2,0.8,0.6,0.6,0.2C31.3,13.5,31.2,13.5,30.9,13.6z M33.2,16.2C33.2,16.2,33.2,16.2,33.2,16.2
			C33.1,16.2,33.4,16.3,33.2,16.2z M31.9,13.3C31.9,13.3,31.9,13.3,31.9,13.3C31.5,12.9,32,13.4,31.9,13.3z M32.7,15.5
			C32.7,15.5,32.7,15.4,32.7,15.5C32.7,15.5,32.7,15.5,32.7,15.5z M32.9,16.1c0,0.1,0,0.1-0.1,0.1c-0.1,0.1-0.1,0.1,0,0
			c0,0.1,0,0.1,0,0c0.1,0,0.1-0.1,0.2-0.2c0,0-0.2,0.1-0.2,0.2C32.9,16.2,32.9,16.1,32.9,16.1z M32.3,13.2c0.2,0.1,0.4,0.1,1.1,0.3
			C33.1,13.4,32.7,13.3,32.3,13.2C32.3,13.2,32.3,13.2,32.3,13.2C32.3,13.1,32.2,13.1,32.3,13.2C32.2,13.1,32.3,13.2,32.3,13.2
			C32.3,13.2,32.3,13.2,32.3,13.2C32.3,13.2,32.3,13.2,32.3,13.2z M33.6,13.5C33.6,13.5,33.6,13.5,33.6,13.5L33.6,13.5z M31.6,12.9
			c0.3,0.1,0.5,0.2,0.6,0.2C32,13.1,31.8,13,31.7,13C31.7,13,31.7,13,31.6,12.9C31.6,12.9,31.6,12.9,31.6,12.9z M32,13.1
			C32.1,13,31.9,13.1,32,13.1L32,13.1z M33.4,13.4c0.1,0,0.2,0,0.2,0C33.5,13.5,33.5,13.4,33.4,13.4z M29.4,12.7
			C29.3,12.7,29.3,12.7,29.4,12.7L29.4,12.7z M30.5,12.9c-0.4-0.3-0.6-0.1-1.1-0.2c0,0-0.1,0-0.1,0c0,0-0.8-0.1-0.8-0.1
			c0.6,0.1,0.8,0.1,0.8,0.1C28.1,12.9,30.6,13,30.5,12.9z M33.5,16.1C33.5,16.1,33.4,16.2,33.5,16.1L33.5,16.1z M29.5,12.6
			C29.4,12.6,29.5,12.6,29.5,12.6C29.6,12.6,29.5,12.6,29.5,12.6z M34.6,13.1C34.6,13.1,34.5,13.1,34.6,13.1
			C34.6,13.1,34.6,13.1,34.6,13.1z M33.4,14.9C33.5,14.9,33.4,14.9,33.4,14.9L33.4,14.9z M33.2,22.4C33.2,22.3,33.1,22.3,33.2,22.4
			C33.1,22.4,33.2,22.4,33.2,22.4z M36.1,19C36.1,19,36.1,19,36.1,19L36.1,19z M36.1,19C36.1,19,36.1,19,36.1,19
			C36.1,19,36.1,19,36.1,19z M40.2,16.9c0,0.1,0.8,0.2,1,0c0.4-0.6-0.7-0.3-0.7-0.4C39.9,16.1,40.2,16.8,40.2,16.9z M42.1,18.9
			C42.1,18.9,42.1,18.8,42.1,18.9C42.1,18.9,42.1,18.9,42.1,18.9z M42,18.3C42,18.3,42,18.3,42,18.3C42,18.4,42,18.3,42,18.3z
			 M42,18.4C42,18.4,42,18.4,42,18.4L42,18.4z M31.9,30.5C31.8,30.5,32.1,30.6,31.9,30.5L31.9,30.5z M23.2,16.1
			C23.2,16.1,23.2,16.1,23.2,16.1L23.2,16.1z M34.8,19.1C34.8,19.1,34.8,19.1,34.8,19.1L34.8,19.1z M27.3,14
			C27.4,13.9,27.1,14.1,27.3,14L27.3,14z M35.1,19.2c-0.1,0-0.2-0.1-0.3-0.1C34.9,19.3,34.9,19.3,35.1,19.2z M33.3,14.8
			C33.5,14.8,33.1,14.8,33.3,14.8C33.3,14.8,33.3,14.8,33.3,14.8z M37.3,26.2c0.7,2.1-5.3,4-4.9,5.7c-0.4,0-0.4,0.1-0.7-0.2
			c0.1,0.1,0-0.2,0-0.3c0,0,0,0,0,0c0,0,0-0.1,0,0c0,0,0.1-0.1,0.1-0.1c0,0-0.1-0.1,0-0.1c0-0.1-0.1,0-0.1,0c0,0,0,0,0,0
			c0,0.1,0,0.1,0,0.1c0-0.1,0-0.1,0,0c0,0,0,0,0,0c0-0.1,0-0.1,0-0.1c0,0,0,0,0,0c-0.2-0.2,0.7-0.7,0.5-1.1c0.8,0.1-0.3-6.5,0.1-6.4
			c-0.6-0.1-3.5-1.6-3.6-3.1c0,0-0.1-0.4-0.2-0.3c0,0.2,0.6,1.1,0.5,1.2c0.1,0-1.7-3.9-2.1-5c0,0,0,0.1,0,0.1c0,0,0,0,0,0.1
			c0,0-0.1-0.1-0.1,0c0,0,0-0.1,0-0.1c0.1,0-0.1-0.4,0-0.5c-0.1,0.1,0,0.3-0.1,0.4c0.1-0.1,0-0.3-0.1-0.5c0,0,0,0,0,0
			c0,0,0,0.1,0,0.1c0,0,0,0,0,0h0c0,0,0,0,0,0c0,0.1,0,0.3,0,0.3c-0.3-0.5-1.7-1.2-1.8-1.1c-0.3,0.2-0.8,1-1.3,0.9c0,0,0,0-0.1,0
			c0,0,0,0,0,0c0,0-0.1,0-0.1,0.1c0.1,0,0.5-0.3,0.7-0.5c0,0,0,0,0-0.1c0,0-0.2-0.1-0.1,0c-0.5-0.2-1.3-0.5-0.2-1.1
			c0.2,0.2,1.9-0.3,3.5-0.4c0,0,0,0.2,0,0c0,0,0,0,0,0c1.2-0.1,2.4,0,2.9,0.8c0,0,0,0.1,0,0.1c0,0,0-0.1,0,0
			c-0.1-0.2-0.2-0.4,0.2-0.4c-0.1-0.1-2.3-0.5-0.8-0.4c-0.3-0.1-1.1-0.4-0.5-0.6c-0.6,0.2-0.4,0.2-1,0.1c0,0,0.1-0.1,0-0.1
			c0.1,0,0.3-0.5,0.2-0.5c0,0,0,0,0-0.1c0.5,0,2.1,0.5,2.3,0.5c0,0.2-0.1,0.9,0.3,0.9c-0.4,0,0.2,0.2-0.6,0.1
			c0.7,0.5,0.8,0.1,0.8,0.1c0,0,0,0,0-0.1c0.1,0,0.1,0,0.2-0.1c0.3-0.1,0.2,0.6,0.2,0.5c0,0,0.1,0,0.1,0c-0.1-0.1,0.1-0.2,0.2-0.2
			c-0.5,0.2,0.1-1.1,0-1.2c0.1,0.1,0-0.1,0,0c0.1,0,0.6,0.1,0.5,0.1c0,0,0,0,0,0.1c-0.2,0.9-0.3,0.7,0.1,1.2
			c-0.6,0.5,0.2,1.8,0.5,2.8c0.1,0,0.2,0,0,0c0,0.1,0,0.1,0,0.2c0,0,0,0,0,0c0,0.1,0,0.1,0,0.2c0.1,0,0.1,0,0.1,0.1
			c0.1-0.1,0,0,0.1,0c-0.1-0.3,0-0.5,0.1-0.8c0,0-0.1-0.1,0,0c0,0,0,0,0,0c0.2-0.3,0.3-0.6,0.2-1c0,0,1.9,1.2,1.6,0.5
			c0.2,0.5,1.2,2.1,1.1,2.2c-0.1,0.1,0,0,0,0.1c0,0,0,0,0,0c0,0,0,0,0,0l0,0c0,0-0.1,0.1-0.1,0.1c-0.1,0-0.1,0-0.2,0.1
			c0,0,0.1-0.1,0-0.1c0,0-0.4-0.1-0.5-0.1c-0.2-0.3,0.2,0.1,0-0.1c0,0,0.3-0.4,0.4-0.5c-0.3,0.1-0.6,0-0.8,0c0,0,0,0,0.1,0.1
			c0.3,0.2-0.1-0.1-0.1-0.1c-0.3,0-0.5,0.1-0.7,0.2c0.5-0.4,0.6,0.1,0.7,0.3c0,0,0,0,0,0c0,0,0,0,0,0c0,0,0,0,0,0
			c-1.2-0.3-1.5,2-2.4,2.7c-0.4,0.3-0.7,0.3-0.8,0.1c0,0.1,0,0.2,0,0.2c0.4,1.9,0.9,0.5,1.7,1.3c0,0-0.2,0.4-0.1,0.4
			C33.5,23.8,36.8,24.6,37.3,26.2C37.3,26.2,37.3,26.2,37.3,26.2C37.4,26.3,37.4,26.3,37.3,26.2z M34.1,18.8
			C34.2,18.8,34.1,18.8,34.1,18.8L34.1,18.8z M32,19.3C32,19.3,32,19.3,32,19.3L32,19.3z M32.6,19.4C32,19.6,33.2,19.2,32.6,19.4
			L32.6,19.4z M33,20.5C33.1,20.5,33,20.5,33,20.5L33,20.5z M33,20.4C33,20.5,33,20.4,33,20.4L33,20.4z M33.2,19.9
			C33.2,20,33.3,19.9,33.2,19.9L33.2,19.9z M33.1,20.3C33.2,19.9,33.2,20,33.1,20.3L33.1,20.3z M32.9,19.4
			C32.8,19.4,32.8,19.4,32.9,19.4L32.9,19.4z M32.5,18.9C31.8,18.7,33.3,19.4,32.5,18.9L32.5,18.9z M31.7,15.8
			C31.7,15.8,31.8,15.8,31.7,15.8L31.7,15.8z M26.4,16.1C26.4,16.1,26.4,16.1,26.4,16.1C26.4,16.1,26.4,16.1,26.4,16.1L26.4,16.1
			C26.4,16.1,26.4,16.1,26.4,16.1C26.4,16.1,26.4,16.1,26.4,16.1z M26.6,16.4C26.6,16.4,26.6,16.4,26.6,16.4
			C26.6,16.4,26.6,16.4,26.6,16.4C26.6,16.4,26.6,16.4,26.6,16.4z M26.7,16.4C26.7,16.4,26.6,16.4,26.7,16.4
			C26.6,16.4,26.6,16.4,26.7,16.4C26.6,16.4,26.6,16.4,26.7,16.4z M27.4,17.5C27.4,17.5,27.4,17.5,27.4,17.5L27.4,17.5z M27.7,17.9
			C28,18,27.3,17.6,27.7,17.9L27.7,17.9z M29.3,15.8C29.3,15.8,28.4,16.1,29.3,15.8L29.3,15.8z M29.9,14.8
			C29.9,14.8,29.9,14.8,29.9,14.8L29.9,14.8z M30,14.7C30,14.6,30.1,14.7,30,14.7L30,14.7z M30.9,17.6
			C30.9,17.6,30.9,17.6,30.9,17.6C30.6,17,31,17.9,30.9,17.6z M31,17.9C30.9,17.6,30.9,18.1,31,17.9L31,17.9z M32.2,23.7
			C32.3,23.7,32.2,23.7,32.2,23.7L32.2,23.7z M31.8,31C31.8,31,31.8,31,31.8,31C31.8,31,31.8,31,31.8,31z M31.8,31.5
			C31.8,31.5,31.7,31.5,31.8,31.5L31.8,31.5z M31.9,31.7C31.9,31.8,31.9,31.6,31.9,31.7L31.9,31.7z M32.1,31.9
			C32.1,31.9,32,31.8,32.1,31.9L32.1,31.9z M35.4,25.4C35.4,25.4,35.5,25.4,35.4,25.4L35.4,25.4z M35.5,25.3
			C35.3,25.3,35.7,25.3,35.5,25.3L35.5,25.3z M31.7,31.4C31.7,31.4,31.7,31.4,31.7,31.4C31.7,31.4,31.7,31.4,31.7,31.4
			C31.7,31.4,31.7,31.4,31.7,31.4C31.7,31.4,31.7,31.4,31.7,31.4z M30.5,13.5C30.5,13.5,30.5,13.5,30.5,13.5
			C30.6,13.5,30.6,13.5,30.5,13.5z M27,14.1C27,14.1,27,14.1,27,14.1C27,14.1,27,14.1,27,14.1z M27.2,14C27.1,13.9,27,14,27.2,14
			L27.2,14z M35.5,15.7C35.5,15.7,35.5,15.7,35.5,15.7C35.5,15.7,35.5,15.7,35.5,15.7z M33.4,14.1C33.4,14.1,33.5,14.1,33.4,14.1
			L33.4,14.1z M33,14.7c-0.1,0-0.2,0-0.3,0.1c-0.4-0.4-0.6-0.7,0.2-1c0,0,0,0,0,0c-0.2,0.1-0.3,0.2-0.2,0.4c0.6,0,2.7,0.3,2.8,1.5
			c0,0,0,0.1,0,0.1c0,0-0.2,0.1-0.1,0.1c-0.1,0,0,0,0,0c0,0-0.2,0.1-0.1,0.1c-0.1-0.1-0.4-0.4-0.4-0.4c0,0,0,0.1,0,0.1
			c0.3,0.1,0.2,0.6,0.3,0.6c-0.1,0-0.1,0,0,0.1c-0.3-0.2-0.5-0.2-0.2,0.1c-0.2-0.2-1.3-0.6-1.4-0.7c-0.1-0.2,0.2-0.3,0.3-0.5
			c-0.2,0-0.1,0,0,0c0.1-0.1,0.2-0.3,0-0.4c0,0,0,0,0,0c0,0,0,0,0,0C33.6,14.9,33.4,14.8,33,14.7C33.2,14.7,33,14.7,33,14.7z
			 M34.4,14.8C34.5,14.7,34.4,14.8,34.4,14.8L34.4,14.8z M34.6,16.2C34.6,16.3,34.6,16.1,34.6,16.2L34.6,16.2z M34.4,14.7
			C34.5,14.7,34.5,14.7,34.4,14.7L34.4,14.7z M34.3,14.7C34.3,14.7,34.3,14.7,34.3,14.7C34.5,14.6,34.4,14.7,34.3,14.7z M32.8,14.6
			C32.6,14.6,32.9,14.7,32.8,14.6L32.8,14.6z M32.8,14.3C32.7,14.3,33,14.4,32.8,14.3L32.8,14.3z M35.2,19.3
			C35.3,19.2,35.1,19.3,35.2,19.3c0.1-0.1-0.1-0.1,0-0.1c0,0,0,0,0-0.1c0,0-0.1,0.1-0.1,0.1C35.1,19.2,35.1,19.2,35.2,19.3
			C35.1,19.3,35.2,19.3,35.2,19.3z M32.8,13.8C32.9,13.8,32.9,13.8,32.8,13.8C32.9,13.8,32.8,13.8,32.8,13.8z M32.5,15.1
			C32.5,15.2,32.6,14.8,32.5,15.1c0.1-0.1,0.2-0.2,0.2-0.3c0,0-0.1-0.1-0.1-0.1c-0.2,0-0.3,0.1-0.4,0.2c0,0.1,0.1,0.1,0.1,0.2
			C32.5,15.1,32.5,15.1,32.5,15.1z M33.4,14.1C33.9,14.5,33.5,14.1,33.4,14.1L33.4,14.1z M34.8,19.2C34.8,19.1,34.8,19.2,34.8,19.2
			L34.8,19.2z M34,14.4C34,14.3,33.9,14.4,34,14.4C34,14.4,34,14.4,34,14.4z M32.5,18.9C32.4,18.9,32.5,18.9,32.5,18.9L32.5,18.9z
			 M32.1,15.4C32.3,15.6,32.2,15.4,32.1,15.4L32.1,15.4z M34.3,14.7C34.3,14.7,34.3,14.7,34.3,14.7C34.4,14.7,34.4,14.7,34.3,14.7z
			 M30.9,17.6C30.9,17.6,30.9,17.6,30.9,17.6C30.9,17.6,30.9,17.6,30.9,17.6z M34.1,22.8C34.1,22.9,34,22.8,34.1,22.8L34.1,22.8z
			 M34.1,22.8C33.9,22.8,33.8,22.7,34.1,22.8L34.1,22.8z M33.6,22.7C33.6,22.7,33.7,22.7,33.6,22.7L33.6,22.7z M33.6,22.7
			C33.3,22.6,32.7,22.4,33.6,22.7L33.6,22.7z M32.7,22.7C32.8,22.8,32.4,22.4,32.7,22.7L32.7,22.7z M36.6,14.9
			C36.6,14.9,36.6,14.9,36.6,14.9C36.7,14.9,36.6,14.9,36.6,14.9z M34.7,13.1C34.7,13.1,34.8,13.2,34.7,13.1
			C34.8,13.1,34.7,13.1,34.7,13.1z M42,18.3C42,18.3,41.9,18.3,42,18.3L42,18.3z"/>
	</g>
	<circle id="XMLID_505_" class="st18" cx="31.7" cy="46" r="1"/>
	<circle id="XMLID_780_" class="st44" cx="49.3" cy="18.1" r="1"/>
	<circle id="XMLID_783_" class="st44" cx="20.4" cy="39.4" r="1"/>
	<circle id="XMLID_781_" class="st7" cx="47.2" cy="38.4" r="1"/>
	<circle id="XMLID_782_" class="st7" cx="17.3" cy="23.7" r="1"/>
</g>
<g id="XMLID_797_" class="st0">
	<rect id="XMLID_786_" x="18.5" y="19.9" class="st30" width="6.3" height="26.1"/>
	<rect id="XMLID_792_" x="31.7" y="19.9" class="st10" width="6.3" height="26.1"/>
	<rect id="XMLID_793_" x="31.7" y="23.5" class="st13" width="6.3" height="1"/>
	<rect id="XMLID_794_" x="31.7" y="25.5" class="st13" width="6.3" height="1"/>
	<rect id="XMLID_796_" x="31.7" y="40" class="st13" width="6.3" height="1"/>
	<rect id="XMLID_795_" x="29.2" y="42" class="st13" width="6.3" height="1"/>
	<rect id="XMLID_788_" x="25" y="13.6" class="st14" width="6.3" height="32.4"/>
	<rect id="XMLID_798_" x="38.1" y="17.9" class="st6" width="7.2" height="28.1"/>
	<rect id="XMLID_799_" x="41" y="17.9" class="st12" width="1.9" height="28.1"/>
	<rect id="XMLID_787_" x="20.6" y="22.9" class="st10" width="2.3" height="19.9"/>
	<rect id="XMLID_790_" x="26" y="17.1" class="st11" width="4.3" height="4.3"/>
	<rect id="XMLID_791_" x="26" y="37.8" class="st11" width="4.3" height="4.3"/>
	<rect id="XMLID_785_" x="12.2" y="46.3" class="st14" width="39.6" height="4.1"/>
	<rect id="XMLID_784_" x="12.2" y="46.3" class="st7" width="39.6" height="4.1"/>
</g>
<g id="XMLID_811_" class="st0">
	<path id="XMLID_809_" class="st11" d="M50.1,27v15.1h-1.9v2.6v4.8c0,0.3-0.3,0.4-0.5,0.2l-6.3-7.6h-19V27H50.1z"/>
	<line id="XMLID_807_" class="st7" x1="46.8" y1="30.9" x2="26.6" y2="30.9"/>
	<line id="XMLID_806_" class="st7" x1="46.8" y1="34.2" x2="26.6" y2="34.2"/>
	<line id="XMLID_800_" class="st7" x1="46.8" y1="37.6" x2="34.8" y2="37.6"/>
	<path id="XMLID_805_" class="st10" d="M13.9,16.3V32h2v2.7v5c0,0.3,0.3,0.4,0.5,0.2L23,32h19.8V16.3H13.9z"/>
	<line id="XMLID_803_" class="st7" x1="17.4" y1="20.3" x2="38.4" y2="20.3"/>
	<line id="XMLID_804_" class="st7" x1="16.4" y1="12.2" x2="25.2" y2="12.2"/>
	<line id="XMLID_808_" class="st7" x1="31.4" y1="12.2" x2="27.2" y2="12.2"/>
	<line id="XMLID_810_" class="st7" x1="35.7" y1="14.8" x2="23.5" y2="14.8"/>
	<line id="XMLID_802_" class="st7" x1="17.4" y1="23.8" x2="38.4" y2="23.8"/>
	<line id="XMLID_801_" class="st7" x1="17.4" y1="27.3" x2="29.8" y2="27.3"/>
	<line id="XMLID_817_" class="st7" x1="40.3" y1="44.5" x2="29.4" y2="44.5"/>
	<line id="XMLID_818_" class="st7" x1="42.2" y1="46.9" x2="38" y2="46.9"/>
	<line id="XMLID_819_" class="st7" x1="25.2" y1="46.9" x2="36.2" y2="46.9"/>
	<path id="XMLID_822_" class="st32" d="M18.6,49.1h-1.4v-0.7c0-0.3,0-0.6,0.1-0.7c0.1-0.2,0.2-0.4,0.5-0.6l0.9-0.9
		c0.2-0.2,0.3-0.4,0.3-0.7s-0.1-0.5-0.3-0.7c-0.2-0.2-0.4-0.3-0.7-0.3s-0.6,0.1-0.8,0.3c-0.2,0.2-0.3,0.4-0.4,0.8h-1.5
		c0.1-0.7,0.4-1.3,0.8-1.7c0.5-0.4,1.1-0.6,1.8-0.6c0.7,0,1.3,0.2,1.7,0.6c0.4,0.4,0.7,0.9,0.7,1.6c0,0.5-0.1,0.9-0.4,1.2
		c-0.2,0.2-0.3,0.3-0.3,0.4c-0.1,0.1-0.2,0.2-0.3,0.3c-0.1,0.1-0.2,0.2-0.3,0.3c-0.1,0.1-0.2,0.2-0.2,0.2c-0.1,0.2-0.2,0.4-0.2,0.7
		V49.1z M18,51.8c-0.3,0-0.5-0.1-0.7-0.3c-0.2-0.2-0.3-0.4-0.3-0.6c0-0.2,0.1-0.5,0.3-0.6c0.2-0.2,0.4-0.3,0.6-0.3s0.5,0.1,0.7,0.3
		c0.2,0.2,0.3,0.4,0.3,0.6c0,0.2-0.1,0.5-0.3,0.6C18.5,51.7,18.2,51.8,18,51.8z"/>
	<path id="XMLID_825_" class="st32" d="M47.7,21.2c-0.2,0-0.5-0.1-0.6-0.3c-0.2-0.2-0.3-0.4-0.3-0.6c0-0.2,0.1-0.5,0.3-0.6
		c0.2-0.2,0.4-0.3,0.6-0.3c0.2,0,0.5,0.1,0.6,0.3s0.3,0.4,0.3,0.6c0,0.2-0.1,0.5-0.3,0.6C48.2,21.2,47.9,21.2,47.7,21.2z M46.9,12.6
		h1.7v1.5l-0.4,4.3h-1l-0.4-4.3V12.6z"/>
</g>
<g id="XMLID_1_" class="st0">
	<path id="XMLID_831_" class="st13" d="M46.4,31.8v4.6c0,0.5,0.2,1.4,0.4,1.9l5.8,13.2c0.2,0.5-0.1,0.9-0.6,0.9H35
		c-0.5,0-0.8-0.4-0.6-0.9l5.8-13.2c0.2-0.5,0.4-1.3,0.4-1.9v-4.6H46.4z"/>
	<path id="XMLID_813_" class="st13" d="M25,25v6.3c4.6,1.3,7.9,5.4,7.9,10.4c0,6-4.8,10.8-10.8,10.8c-6,0-10.8-4.8-10.8-10.8
		c0-5,3.4-9.1,7.9-10.4V25H25z"/>
	<path id="XMLID_835_" class="st11" d="M32.9,41.6c0,6-4.8,10.8-10.8,10.8c-6,0-10.8-4.8-10.8-10.8H32.9z"/>
	<path id="XMLID_844_" class="st6" d="M30.7,41.6c-1.1,5.6-6,9.8-11.9,9.8c-0.5,0-0.9,0-1.4-0.1c1.4,0.7,3,1.1,4.7,1.1
		c6,0,10.8-4.8,10.8-10.8H30.7z"/>
	<path id="XMLID_832_" class="st9" d="M50.1,45.9l2.5,5.7c0.2,0.5-0.1,0.9-0.6,0.9H35c-0.5,0-0.8-0.4-0.6-0.9l2.3-5.7L50.1,45.9z"/>
	<path id="XMLID_845_" class="st10" d="M52.6,51.5l-2.5-5.7l-1.8,0l2.3,5.2c0.2,0.5-0.1,0.9-0.6,0.9H34.4c0,0.3,0.3,0.5,0.7,0.5h17
		C52.5,52.4,52.8,52,52.6,51.5z"/>
	<path id="XMLID_829_" class="st45" d="M22.1,30.5l0-11.3c0-1.1,0.9-2,2-2h0.1c1.1,0,2,0.9,2,2v0.3c0,1.1,0.9,2,2,2h0
		c1.1,0,2-0.9,2-2v-0.3c0-1.1,0.9-2,1.9-2c1.1,0,1.9,0.9,1.9,2v0.3c0,1.1,0.9,2,2,2h0.8c1.1,0,2-0.9,2-2v-0.3c0-1.1,0.9-2,2-2h1.1
		c1.1,0,2,0.9,2,2v17"/>
	<circle id="XMLID_828_" class="st11" cx="22.1" cy="41.6" r="1.3"/>
	<circle id="XMLID_821_" class="st6" cx="21.2" cy="38.3" r="0.9"/>
	<circle id="XMLID_820_" class="st9" cx="41.7" cy="45.4" r="0.9"/>
	<circle id="XMLID_816_" class="st9" cx="43.8" cy="43.3" r="1"/>
	<circle id="XMLID_815_" class="st9" cx="42.2" cy="40.6" r="0.7"/>
	<circle id="XMLID_814_" class="st6" cx="23.9" cy="35.6" r="1.3"/>
	<rect id="XMLID_841_" x="19.3" y="25" class="st46" width="5.7" height="0.8"/>
	<g id="XMLID_837_" class="st2">
		<path id="XMLID_834_" class="st23" d="M25.6,25.2h-6.8c-0.4,0-0.8-0.3-0.8-0.8c0-0.4,0.3-0.8,0.8-0.8h6.8c0.4,0,0.8,0.3,0.8,0.8
			C26.3,24.9,26,25.2,25.6,25.2z"/>
	</g>
	<rect id="XMLID_840_" x="40.7" y="32.3" class="st46" width="5.7" height="0.8"/>
	<g id="XMLID_836_" class="st2">
		<path id="XMLID_839_" class="st23" d="M47,32.6h-6.8c-0.4,0-0.8-0.3-0.8-0.7c0-0.4,0.3-0.8,0.8-0.8H47c0.4,0,0.8,0.3,0.8,0.8
			C47.8,32.2,47.4,32.6,47,32.6z"/>
	</g>
	<circle id="XMLID_812_" class="st47" cx="17.6" cy="36.4" r="1.2"/>
	<circle id="XMLID_838_" class="st48" cx="25.7" cy="39.1" r="0.7"/>
	<circle id="XMLID_842_" class="st49" cx="45.2" cy="39.9" r="0.7"/>
	<g id="XMLID_830_" class="st2">
		<line id="XMLID_833_" class="st3" x1="14.7" y1="16.8" x2="16.4" y2="18.6"/>
		<line id="XMLID_843_" class="st3" x1="14.7" y1="18.6" x2="16.4" y2="16.8"/>
	</g>
	<g id="XMLID_855_" class="st2">
		<line id="XMLID_857_" class="st3" x1="27.5" y1="28.5" x2="29.3" y2="30.3"/>
		<line id="XMLID_856_" class="st3" x1="27.5" y1="30.3" x2="29.3" y2="28.5"/>
	</g>
	<g id="XMLID_846_" class="st2">
		<line id="XMLID_848_" class="st3" x1="31.4" y1="11.6" x2="34.2" y2="14.4"/>
		<line id="XMLID_847_" class="st3" x1="31.4" y1="14.4" x2="34.2" y2="11.6"/>
	</g>
	<g id="XMLID_849_" class="st2">
		<line id="XMLID_851_" class="st3" x1="37.1" y1="25" x2="39.9" y2="27.8"/>
		<line id="XMLID_850_" class="st3" x1="37.1" y1="27.8" x2="39.9" y2="25"/>
	</g>
	<g id="XMLID_852_" class="st2">
		<line id="XMLID_854_" class="st3" x1="49" y1="14.2" x2="50.6" y2="15.9"/>
		<line id="XMLID_853_" class="st3" x1="49" y1="15.9" x2="50.6" y2="14.2"/>
	</g>
</g>
<g id="XMLID_2_" class="st0">
	<rect id="XMLID_860_" x="22.7" y="24.5" class="st14" width="31.1" height="21.9"/>
	<g id="XMLID_715_" class="st2">
		<path id="XMLID_711_" class="st29" d="M26.4,38.7l4,3.7c1.2,0.9,0,2.8-1.1,1.8l-4.1-3l0,1.4l3.7,3.4c0,0,2.3,0.3,2.6,0.4l2.9,0.1
			c0.5-0.2,1.1,0,1.3,0.5c0.2,0.5,0,1.1-0.5,1.3l-3.3,0c-0.3,0.1-4.2,0.1-4.2,0.1l-8.5-4.1v-6.3l6.1,0
			C25.6,38.2,26.1,38.4,26.4,38.7z"/>
		<path id="XMLID_710_" class="st43" d="M26.4,38.7l4,3.7c1.2,0.9,0,2.8-1.1,1.8l-4.1-3l0,1.4l3.8,3.6c0,0,2.3,0.2,2.6,0.3l2.9-0.1
			c0.6,0.1,1.1,0,1.3,0.5c0.2,0.5,0,1.1-0.5,1.3l-3.4,0.1c-0.3,0.1-4.2,0.1-4.2,0.1l-8.5-4.1v-6.3l6.1,0
			C25.6,38.2,26.1,38.4,26.4,38.7z"/>
		<rect id="XMLID_706_" x="10.2" y="35.9" class="st19" width="8.6" height="9.8"/>
		<rect id="XMLID_500_" x="10.2" y="35.9" class="st26" width="8.6" height="2.7"/>
	</g>
	<line id="XMLID_869_" class="st7" x1="33" y1="28.4" x2="43.5" y2="28.4"/>
	<line id="XMLID_898_" class="st7" x1="37.6" y1="15.5" x2="46.8" y2="15.5"/>
	<line id="XMLID_899_" class="st7" x1="26.3" y1="21.7" x2="31.2" y2="21.7"/>
	<line id="XMLID_900_" class="st7" x1="37" y1="21.7" x2="32.7" y2="21.7"/>
	<line id="XMLID_901_" class="st7" x1="50.4" y1="21.7" x2="38.2" y2="21.7"/>
	<line id="XMLID_902_" class="st7" x1="41.9" y1="18.5" x2="29.7" y2="18.5"/>
	<line id="XMLID_861_" class="st7" x1="27.4" y1="31.1" x2="48.5" y2="31.1"/>
	<line id="XMLID_870_" class="st7" x1="27.7" y1="34.2" x2="48.8" y2="34.2"/>
	<line id="XMLID_871_" class="st7" x1="27.9" y1="37.4" x2="39.3" y2="37.4"/>
	<line id="XMLID_891_" class="st7" x1="29.3" y1="40.5" x2="39.4" y2="40.5"/>
	<line id="XMLID_893_" class="st7" x1="30.4" y1="43.6" x2="39.5" y2="43.6"/>
	<polygon id="XMLID_896_" class="st10" points="47.4,46.7 45,45.7 42.5,46.7 42.5,39.9 47.4,39.9 	"/>
	<polygon id="XMLID_897_" class="st45" points="47.4,46.7 45,45.7 42.5,46.7 42.5,39.9 47.4,39.9 	"/>
	<path id="XMLID_894_" class="st6" d="M48.7,39.7c0,0.5-0.7,0.8-0.8,1.2c-0.2,0.4,0.1,1.1-0.3,1.4c-0.3,0.3-1,0.1-1.4,0.3
		c-0.4,0.2-0.7,0.8-1.2,0.8c-0.5,0-0.8-0.7-1.2-0.8c-0.4-0.2-1.1,0.1-1.4-0.3c-0.3-0.3-0.1-1-0.3-1.4c-0.2-0.4-0.8-0.7-0.8-1.2
		c0-0.5,0.7-0.8,0.8-1.2c0.2-0.4-0.1-1.1,0.3-1.4c0.3-0.3,1-0.1,1.4-0.3c0.4-0.2,0.7-0.8,1.2-0.8c0.5,0,0.8,0.7,1.2,0.8
		c0.4,0.2,1.1-0.1,1.4,0.3c0.3,0.3,0.1,1,0.3,1.4C48,38.9,48.7,39.2,48.7,39.7z"/>
	<path id="XMLID_892_" class="st7" d="M48.7,39.7c0,0.5-0.7,0.8-0.8,1.2c-0.2,0.4,0.1,1.1-0.3,1.4c-0.3,0.3-1,0.1-1.4,0.3
		c-0.4,0.2-0.7,0.8-1.2,0.8c-0.5,0-0.8-0.7-1.2-0.8c-0.4-0.2-1.1,0.1-1.4-0.3c-0.3-0.3-0.1-1-0.3-1.4c-0.2-0.4-0.8-0.7-0.8-1.2
		c0-0.5,0.7-0.8,0.8-1.2c0.2-0.4-0.1-1.1,0.3-1.4c0.3-0.3,1-0.1,1.4-0.3c0.4-0.2,0.7-0.8,1.2-0.8c0.5,0,0.8,0.7,1.2,0.8
		c0.4,0.2,1.1-0.1,1.4,0.3c0.3,0.3,0.1,1,0.3,1.4C48,38.9,48.7,39.2,48.7,39.7z"/>
	<circle id="XMLID_895_" class="st31" cx="45" cy="39.7" r="1.5"/>
</g>
<g id="XMLID_942_" class="st0">
	<g id="XMLID_940_" class="st2">
		<path id="XMLID_903_" class="st19" d="M52,25H33.4c-0.7,0-1.4,0.6-1.4,1.4v24.9c0,0.7,0.5,1.2,1.2,1.2H52V25z"/>
		<path id="XMLID_906_" class="st19" d="M12,25h18.6c0.7,0,1.4,0.6,1.4,1.4v24.9c0,0.7-0.5,1.2-1.2,1.2H12V25z"/>
		<path id="XMLID_924_" class="st23" d="M33.1,51.5h18.1V25.7H34.5c-1.4,0-2.6,1.1-2.6,2.6v22.1C32,51,32.5,51.5,33.1,51.5z"/>
		<path id="XMLID_923_" class="st29" d="M30.9,51.5H12.8V25.7h16.7c1.4,0,2.6,1.1,2.6,2.6v22.1C32.1,51,31.5,51.5,30.9,51.5z"/>
		<path id="XMLID_922_" class="st29" d="M34.2,25.7c-1,0.2-1.9,1-2.1,2.1v22.9c0.2,0.5,0.6,0.8,1.1,0.8h1V25.7z"/>
		<path id="XMLID_921_" class="st23" d="M29.9,25.7c1,0.2,1.9,1,2.1,2.1v22.9c-0.2,0.5-0.6,0.8-1.1,0.8h-1V25.7z"/>
		<line id="XMLID_915_" class="st50" x1="35.2" y1="28.7" x2="49.3" y2="28.7"/>
		<line id="XMLID_907_" class="st50" x1="35.2" y1="32.5" x2="49.3" y2="32.5"/>
		<line id="XMLID_914_" class="st50" x1="35.2" y1="36.3" x2="49.3" y2="36.3"/>
		<line id="XMLID_913_" class="st50" x1="35.2" y1="40.2" x2="49.3" y2="40.2"/>
		<line id="XMLID_911_" class="st50" x1="35.2" y1="44" x2="49.3" y2="44"/>
		<line id="XMLID_910_" class="st50" x1="35.2" y1="47.9" x2="49.3" y2="47.9"/>
		<line id="XMLID_919_" class="st50" x1="14.2" y1="28.7" x2="28.3" y2="28.7"/>
		<line id="XMLID_918_" class="st50" x1="14.2" y1="32.5" x2="28.3" y2="32.5"/>
		<line id="XMLID_917_" class="st50" x1="14.2" y1="36.3" x2="28.3" y2="36.3"/>
		<line id="XMLID_916_" class="st50" x1="14.2" y1="40.2" x2="28.3" y2="40.2"/>
		<line id="XMLID_909_" class="st50" x1="14.2" y1="44" x2="28.3" y2="44"/>
		<line id="XMLID_908_" class="st50" x1="14.2" y1="47.9" x2="28.3" y2="47.9"/>
	</g>
	<g id="XMLID_941_" class="st2">
		<g id="XMLID_905_">
			<path id="XMLID_935_" class="st25" d="M34.3,38.2v4.2c0,1.3-1,2.3-2.3,2.3l0,0c-1.3,0-2.3-1-2.3-2.3v-4.2H34.3z"/>
			<path id="XMLID_934_" class="st3" d="M34.3,38.2v4.2c0,1.3-1,2.3-2.3,2.3l0,0c-1.3,0-2.3-1-2.3-2.3v-4.2H34.3z"/>
			<circle id="XMLID_932_" class="st27" cx="32.1" cy="24.9" r="8.4"/>
			<rect id="XMLID_931_" x="28" y="28.2" class="st27" width="8.1" height="9.2"/>
			<rect id="XMLID_930_" x="27.9" y="37" class="st23" width="8.3" height="2.3"/>
			<rect id="XMLID_929_" x="27.9" y="37" class="st3" width="8.3" height="2.3"/>
			<line id="XMLID_928_" class="st3" x1="29.9" y1="40.6" x2="32.5" y2="40.6"/>
			<line id="XMLID_927_" class="st3" x1="32" y1="42" x2="34.6" y2="42"/>
		</g>
		<line id="XMLID_925_" class="st3" x1="32" y1="11.5" x2="32" y2="15"/>
		<line id="XMLID_920_" class="st3" x1="36.5" y1="12.3" x2="35.4" y2="15.5"/>
		<line id="XMLID_926_" class="st3" x1="40.6" y1="14.6" x2="38.4" y2="17.2"/>
		<line id="XMLID_933_" class="st3" x1="43.6" y1="18.2" x2="40.6" y2="19.9"/>
		<line id="XMLID_936_" class="st3" x1="45.2" y1="22.5" x2="41.8" y2="23.1"/>
		<line id="XMLID_937_" class="st3" x1="45.2" y1="27.2" x2="41.8" y2="26.6"/>
		<line id="XMLID_938_" class="st3" x1="43.6" y1="31.5" x2="40.6" y2="29.8"/>
		<line id="XMLID_939_" class="st3" x1="40.6" y1="35.1" x2="38.4" y2="32.5"/>
		<line id="XMLID_943_" class="st3" x1="23.4" y1="35" x2="25.6" y2="32.4"/>
		<line id="XMLID_944_" class="st3" x1="20.4" y1="31.4" x2="23.4" y2="29.7"/>
		<line id="XMLID_945_" class="st3" x1="18.9" y1="27" x2="22.3" y2="26.5"/>
		<line id="XMLID_946_" class="st3" x1="19" y1="22.3" x2="22.3" y2="23"/>
		<line id="XMLID_947_" class="st3" x1="20.6" y1="18" x2="23.6" y2="19.8"/>
		<line id="XMLID_948_" class="st3" x1="23.7" y1="14.5" x2="25.8" y2="17.2"/>
		<line id="XMLID_949_" class="st3" x1="27.8" y1="12.2" x2="28.8" y2="15.5"/>
	</g>
</g>
<g id="XMLID_1014_" class="st0">
	<path id="XMLID_981_" class="st17" d="M36.1,19.5c0,0,3.5,0.7,3.6,3.5l0,0c0,0,3.2,0.6,2.2,4.4c0,0,2.4,1.8,1.6,6l0,0
		c0,0,3.3,2.2-0.4,5.6l0,0.4c0,0,0.5,2.7-2.7,5c0,0-1.3,1.1-3.5,3.7c-1,1.3-4.4,2.7-6.1-2.3V20.4C31.1,20.4,33.2,16.3,36.1,19.5z"/>
	<path id="XMLID_966_" class="st10" d="M25.4,19.5c0,0-3.5,0.7-3.6,3.5l0,0c0,0-3.2,0.6-2.2,4.4c0,0-2.4,1.8-1.6,6l0,0
		c0,0-3.3,2.2,0.4,5.6l0,0.4c0,0-0.5,2.7,2.7,5c0,0,1.3,1.1,3.5,3.7c1,1.3,4.4,2.7,6.1-2.3V20.4C30.4,20.4,28.3,16.3,25.4,19.5z"/>
	<path id="XMLID_950_" class="st7" d="M40.1,29.5c-0.8,0.5-1.7,0.7-2.6,0.5c-0.9-0.2-1.6-0.7-2.2-1.4c-0.5-0.8-0.7-1.7-0.5-2.6"/>
	<path id="XMLID_993_" class="st7" d="M37.5,38.2c-0.8,0.5-1.7,0.7-2.6,0.5c-0.9-0.2-1.6-0.7-2.2-1.4c-0.5-0.8-0.7-1.7-0.5-2.6"/>
	<path id="XMLID_952_" class="st7" d="M43.3,38.9c-0.8,0-1.4-0.4-1.9-0.9c-0.5-0.5-0.7-1.2-0.7-2c0-0.8,0.4-1.4,0.9-1.9"/>
	<path id="XMLID_989_" class="st7" d="M35,33.5c-0.6-0.7-0.9-1.5-0.8-2.5c0.1-0.9,0.5-1.8,1.2-2.3"/>
	<path id="XMLID_991_" class="st7" d="M41.1,37.7c-0.3-0.8-0.9-1.5-1.7-1.9c-0.8-0.4-1.8-0.4-2.6-0.1"/>
	<path id="XMLID_990_" class="st7" d="M37.3,24.8c-0.6-0.6-1.1-1.4-1.1-2.4c0-0.9,0.3-1.8,0.9-2.5"/>
	<path id="XMLID_995_" class="st7" d="M32.8,24.9c0.9,0,1.7-0.3,2.4-1c0.7-0.7,1-1.5,1-2.4"/>
	<path id="XMLID_988_" class="st7" d="M33.3,46.8c0.7-0.7,1.5-1,2.4-1c0.9,0,1.7,0.3,2.4,1"/>
	<path id="XMLID_992_" class="st7" d="M34.9,41.5c-0.3,0.9-0.3,1.8,0,2.6c0.3,0.8,1,1.5,1.9,1.8"/>
	<path id="XMLID_1003_" class="st7" d="M21.4,29.5c0.8,0.5,1.7,0.7,2.6,0.5c0.9-0.2,1.6-0.7,2.2-1.4c0.5-0.8,0.7-1.7,0.5-2.6"/>
	<path id="XMLID_1002_" class="st7" d="M24,38.2c0.8,0.5,1.7,0.7,2.6,0.5c0.9-0.2,1.6-0.7,2.2-1.4c0.5-0.8,0.7-1.7,0.5-2.6"/>
	<path id="XMLID_1001_" class="st7" d="M18.2,38.9c0.8,0,1.4-0.4,1.9-0.9c0.5-0.5,0.7-1.2,0.7-2c0-0.8-0.4-1.4-0.9-1.9"/>
	<path id="XMLID_1000_" class="st7" d="M26.5,33.5c0.6-0.7,0.9-1.5,0.8-2.5c-0.1-0.9-0.5-1.8-1.2-2.3"/>
	<path id="XMLID_999_" class="st7" d="M20.4,37.7c0.3-0.8,0.9-1.5,1.7-1.9c0.8-0.4,1.8-0.4,2.6-0.1"/>
	<path id="XMLID_998_" class="st7" d="M24.2,24.8c0.6-0.6,1.1-1.4,1.1-2.4c0-0.9-0.3-1.8-0.9-2.5"/>
	<path id="XMLID_997_" class="st7" d="M28.7,25c-0.9,0-1.7-0.3-2.4-1c-0.7-0.7-1-1.5-1-2.4"/>
	<path id="XMLID_996_" class="st7" d="M28.2,46.8c-0.7-0.7-1.5-1-2.4-1c-0.9,0-1.7,0.3-2.4,1"/>
	<path id="XMLID_994_" class="st7" d="M26.6,41.5c0.3,0.9,0.3,1.8,0,2.6c-0.3,0.8-1,1.5-1.9,1.8"/>
	<g id="XMLID_954_" class="st2">
		<line id="XMLID_953_" class="st3" x1="12" y1="18.3" x2="13.2" y2="18.3"/>
		<line id="XMLID_951_" class="st3" x1="15.2" y1="18.3" x2="16.5" y2="18.3"/>
		<line id="XMLID_956_" class="st3" x1="14.2" y1="20.5" x2="14.2" y2="19.3"/>
		<line id="XMLID_955_" class="st3" x1="14.2" y1="17.3" x2="14.2" y2="16"/>
	</g>
	<g id="XMLID_957_" class="st2">
		<line id="XMLID_961_" class="st3" x1="46.9" y1="45" x2="48.4" y2="45"/>
		<line id="XMLID_960_" class="st3" x1="50.8" y1="45" x2="52.3" y2="45"/>
		<line id="XMLID_959_" class="st3" x1="49.6" y1="47.7" x2="49.6" y2="46.2"/>
		<line id="XMLID_958_" class="st3" x1="49.6" y1="43.8" x2="49.6" y2="42.4"/>
	</g>
	<g id="XMLID_1009_" class="st2">
		<line id="XMLID_1013_" class="st3" x1="27.7" y1="12.7" x2="29.2" y2="12.7"/>
		<line id="XMLID_1012_" class="st3" x1="31.6" y1="12.7" x2="33.1" y2="12.7"/>
		<line id="XMLID_1011_" class="st3" x1="30.4" y1="15.4" x2="30.4" y2="13.9"/>
		<line id="XMLID_1010_" class="st3" x1="30.4" y1="11.5" x2="30.4" y2="10"/>
	</g>
	<g id="XMLID_962_" class="st2">
		<line id="XMLID_967_" class="st3" x1="14.8" y1="51.7" x2="16.1" y2="51.7"/>
		<line id="XMLID_965_" class="st3" x1="18.1" y1="51.7" x2="19.4" y2="51.7"/>
		<line id="XMLID_964_" class="st3" x1="17.1" y1="54" x2="17.1" y2="52.7"/>
		<line id="XMLID_963_" class="st3" x1="17.1" y1="50.6" x2="17.1" y2="49.3"/>
	</g>
	<g id="XMLID_968_" class="st2">
		<line id="XMLID_972_" class="st3" x1="21.8" y1="17.6" x2="22.7" y2="17.6"/>
		<line id="XMLID_971_" class="st3" x1="24" y1="17.6" x2="24.9" y2="17.6"/>
		<line id="XMLID_970_" class="st3" x1="23.4" y1="19.1" x2="23.4" y2="18.2"/>
		<line id="XMLID_969_" class="st3" x1="23.4" y1="16.9" x2="23.4" y2="16"/>
	</g>
	<g id="XMLID_1004_" class="st2">
		<line id="XMLID_1008_" class="st3" x1="38.1" y1="52.4" x2="39" y2="52.4"/>
		<line id="XMLID_1007_" class="st3" x1="40.3" y1="52.4" x2="41.2" y2="52.4"/>
		<line id="XMLID_1006_" class="st3" x1="39.7" y1="53.9" x2="39.7" y2="53.1"/>
		<line id="XMLID_1005_" class="st3" x1="39.7" y1="51.7" x2="39.7" y2="50.9"/>
	</g>
	<g id="XMLID_983_" class="st2">
		<line id="XMLID_987_" class="st3" x1="11.7" y1="39.6" x2="12.6" y2="39.6"/>
		<line id="XMLID_986_" class="st3" x1="13.9" y1="39.6" x2="14.8" y2="39.6"/>
		<line id="XMLID_985_" class="st3" x1="13.2" y1="41.1" x2="13.2" y2="40.3"/>
		<line id="XMLID_984_" class="st3" x1="13.2" y1="38.9" x2="13.2" y2="38.1"/>
	</g>
	<g id="XMLID_973_" class="st2">
		<line id="XMLID_977_" class="st3" x1="43.3" y1="25" x2="44.1" y2="25"/>
		<line id="XMLID_976_" class="st3" x1="45.5" y1="25" x2="46.3" y2="25"/>
		<line id="XMLID_975_" class="st3" x1="44.8" y1="26.5" x2="44.8" y2="25.6"/>
		<line id="XMLID_974_" class="st3" x1="44.8" y1="24.3" x2="44.8" y2="23.5"/>
	</g>
	<circle id="XMLID_978_" class="st7" cx="13.9" cy="26.7" r="1"/>
	<circle id="XMLID_980_" class="st7" cx="42.6" cy="16.9" r="0.9"/>
	<circle id="XMLID_982_" class="st7" cx="48.7" cy="34.1" r="0.9"/>
	<circle id="XMLID_979_" class="st7" cx="29.3" cy="52.4" r="0.8"/>
</g>
<g id="XMLID_3_" class="st0">
	<rect id="XMLID_1017_" x="12.6" y="23.9" class="st14" width="32.9" height="23.4"/>
	<rect id="XMLID_1016_" x="12.1" y="19.6" class="st6" width="33.5" height="6.2"/>
	<rect id="XMLID_1015_" x="12.1" y="19.6" class="st7" width="33.5" height="6.2"/>
	<line id="XMLID_1019_" class="st7" x1="15.7" y1="16.5" x2="15.7" y2="22.4"/>
	<line id="XMLID_1018_" class="st7" x1="20.1" y1="16.5" x2="20.1" y2="22.4"/>
	<line id="XMLID_1020_" class="st7" x1="24.6" y1="16.5" x2="24.6" y2="22.4"/>
	<line id="XMLID_1021_" class="st7" x1="29" y1="16.5" x2="29" y2="22.4"/>
	<line id="XMLID_1022_" class="st7" x1="33.5" y1="16.5" x2="33.5" y2="22.4"/>
	<line id="XMLID_1023_" class="st7" x1="37.9" y1="16.5" x2="37.9" y2="22.4"/>
	<line id="XMLID_1024_" class="st7" x1="42.4" y1="16.5" x2="42.4" y2="22.4"/>
	<rect id="XMLID_1025_" x="17.7" y="33.6" class="st32" width="1.8" height="1.8"/>
	<rect id="XMLID_1026_" x="21.2" y="30.6" class="st32" width="1.8" height="1.8"/>
	<rect id="XMLID_1027_" x="24.7" y="30.6" class="st32" width="1.8" height="1.8"/>
	<rect id="XMLID_1028_" x="28.3" y="30.6" class="st32" width="1.8" height="1.8"/>
	<rect id="XMLID_1029_" x="31.8" y="30.6" class="st32" width="1.8" height="1.8"/>
	<rect id="XMLID_1030_" x="35.3" y="30.6" class="st32" width="1.8" height="1.8"/>
	<rect id="XMLID_1031_" x="38.8" y="30.6" class="st32" width="1.8" height="1.8"/>
	<rect id="XMLID_1037_" x="21.2" y="33.6" class="st32" width="1.8" height="1.8"/>
	<rect id="XMLID_1036_" x="24.7" y="33.6" class="st32" width="1.8" height="1.8"/>
	<rect id="XMLID_1035_" x="28.3" y="33.6" class="st32" width="1.8" height="1.8"/>
	<rect id="XMLID_1034_" x="31.8" y="33.6" class="st32" width="1.8" height="1.8"/>
	<rect id="XMLID_1033_" x="35.3" y="33.6" class="st32" width="1.8" height="1.8"/>
	<rect id="XMLID_1032_" x="38.8" y="33.6" class="st32" width="1.8" height="1.8"/>
	<rect id="XMLID_1045_" x="17.7" y="36.5" class="st32" width="1.8" height="1.8"/>
	<rect id="XMLID_1044_" x="21.2" y="36.5" class="st32" width="1.8" height="1.8"/>
	<rect id="XMLID_1043_" x="24.7" y="36.5" class="st32" width="1.8" height="1.8"/>
	<rect id="XMLID_1042_" x="28.3" y="36.5" class="st32" width="1.8" height="1.8"/>
	<rect id="XMLID_1041_" x="31.8" y="36.5" class="st32" width="1.8" height="1.8"/>
	<rect id="XMLID_1040_" x="35.3" y="36.5" class="st32" width="1.8" height="1.8"/>
	<rect id="XMLID_1039_" x="38.8" y="36.5" class="st32" width="1.8" height="1.8"/>
	<rect id="XMLID_1052_" x="17.7" y="39.4" class="st32" width="1.8" height="1.8"/>
	<rect id="XMLID_1051_" x="21.2" y="39.4" class="st32" width="1.8" height="1.8"/>
	<rect id="XMLID_1050_" x="24.7" y="39.4" class="st32" width="1.8" height="1.8"/>
	<rect id="XMLID_1049_" x="28.3" y="39.4" class="st32" width="1.8" height="1.8"/>
	<rect id="XMLID_1048_" x="31.8" y="39.4" class="st32" width="1.8" height="1.8"/>
	<rect id="XMLID_1047_" x="35.3" y="39.4" class="st32" width="1.8" height="1.8"/>
	<rect id="XMLID_1046_" x="38.8" y="39.4" class="st32" width="1.8" height="1.8"/>
	<rect id="XMLID_1059_" x="17.7" y="42.4" class="st32" width="1.8" height="1.8"/>
	<rect id="XMLID_1058_" x="21.2" y="42.4" class="st32" width="1.8" height="1.8"/>
	<rect id="XMLID_1057_" x="24.7" y="42.4" class="st32" width="1.8" height="1.8"/>
	<rect id="XMLID_1056_" x="28.3" y="42.4" class="st32" width="1.8" height="1.8"/>
	<g id="XMLID_1053_" class="st2">
		<path id="XMLID_1038_" class="st19" d="M51.9,37.1c0,1.5-0.3,3-0.9,4.3c-0.6,1.3-1.4,2.5-2.3,3.5c-1,1-2.2,1.8-3.5,2.3
			c-1.3,0.6-2.8,0.1-4.3,0.1c-1.5,0-3,0.5-4.3-0.1c-1.3-0.6-2.5-1.4-3.5-2.3c-1-1-1.8-2.2-2.3-3.5C30.3,40,30,38.6,30,37.1
			c0-1.5,0.3-3,0.9-4.3c0.6-1.3,1.4-2.5,2.3-3.5c1-1,2.2-1.8,3.5-2.3c1.3-0.6,2.8,0.7,4.3,0.7c1.5,0,3-1.3,4.3-0.7
			c1.3,0.6,2.5,1.4,3.5,2.3c1,1,1.8,2.2,2.3,3.5C51.6,34.1,51.9,35.6,51.9,37.1z"/>
		<path id="XMLID_1060_" class="st21" d="M48.1,31.6c-0.6-1.3-1.4-2.6-2.4-3.6c-0.4-0.4-0.9-0.8-1.3-1.1c-1.1,0.1-2.2,0.8-3.4,0.8
			c-1.5,0-3-1.3-4.3-0.7c-1.3,0.6-2.5,1.4-3.5,2.3c-1,1-1.8,2.2-2.3,3.5c-0.6,1.3-0.9,2.8-0.9,4.3c0,1.5,0.3,3,0.9,4.3
			c0.6,1.3,1.4,2.5,2.3,3.5c0.7,0.7,1.4,1.2,2.2,1.7c0.7-0.1,1.5-0.2,2.2-0.2c1.6,0,3,0.5,4.4-0.1c1.3-0.6,2.6-1.4,3.6-2.4
			c1-1,1.8-2.2,2.4-3.6c0.6-1.3,0.9-2.8,0.9-4.4C49,34.4,48.6,32.9,48.1,31.6z"/>
		<line id="XMLID_1054_" class="st3" x1="41" y1="21.5" x2="41" y2="28.9"/>
	</g>
</g>
<g id="XMLID_4_" class="st0">
	<circle id="XMLID_1063_" class="st6" cx="24.8" cy="24.7" r="9.2"/>
	<circle id="XMLID_1062_" class="st13" cx="24.8" cy="24.7" r="7.1"/>
	<circle id="XMLID_1061_" class="st6" cx="24.8" cy="24.7" r="5"/>
	<circle id="XMLID_1055_" class="st14" cx="24.8" cy="24.7" r="2.9"/>
	<g id="XMLID_425_" class="st2">
		<line id="XMLID_434_" class="st3" x1="33" y1="33" x2="36.5" y2="36.5"/>
		<path id="XMLID_431_" class="st20" d="M16.2,16.2c-4.8,4.8-4.8,12.5,0,17.2c4.8,4.8,12.5,4.8,17.2,0c4.8-4.8,4.8-12.5,0-17.2
			C28.7,11.5,21,11.5,16.2,16.2z M32.4,32.4c-4.2,4.2-11.1,4.2-15.3,0c-4.2-4.2-4.2-11.1,0-15.3c4.2-4.2,11.1-4.2,15.3,0
			C36.7,21.4,36.7,28.2,32.4,32.4z"/>
		<path id="XMLID_429_" class="st21" d="M33.8,37.2l13.5,13.5c0.9,0.9,2.5,0.9,3.4,0L35.5,35.5L33.8,37.2z"/>
		<path id="XMLID_428_" class="st19" d="M35.5,35.5l15.2,15.2c0.9-0.9,0.9-2.5,0-3.4L37.2,33.8L35.5,35.5z"/>
		<line id="XMLID_427_" class="st3" x1="36.1" y1="39.7" x2="39.7" y2="36.1"/>
		<line id="XMLID_426_" class="st3" x1="37.6" y1="41.2" x2="41.2" y2="37.6"/>
	</g>
	<g id="XMLID_1067_" class="st2">
		<line id="XMLID_1064_" class="st3" x1="24.9" y1="24.7" x2="48.1" y2="24.7"/>
		<line id="XMLID_1065_" class="st3" x1="41.2" y1="24.7" x2="43.3" y2="22.7"/>
		<line id="XMLID_430_" class="st3" x1="43.3" y1="24.7" x2="45.4" y2="22.7"/>
		<line id="XMLID_1066_" class="st3" x1="45.4" y1="24.7" x2="47.4" y2="22.7"/>
		<line id="XMLID_1070_" class="st3" x1="47.4" y1="26.7" x2="45.4" y2="24.7"/>
		<line id="XMLID_1069_" class="st3" x1="45.4" y1="26.7" x2="43.3" y2="24.7"/>
		<line id="XMLID_1068_" class="st3" x1="43.3" y1="26.7" x2="41.2" y2="24.7"/>
	</g>
</g>
</svg>
